<svg width="716" height="250" viewBox="0 0 716 250" fill="none" xmlns="http://www.w3.org/2000/svg">
<g clip-path="url(#clip0_77_17)">
<mask id="path-1-outside-1_77_17" maskUnits="userSpaceOnUse" x="23" y="11" width="666" height="222" fill="black">
<rect fill="white" x="23" y="11" width="666" height="222"/>
<path d="M137.806 214L131.371 187.259H90.759L85.325 214H43.283L86.898 57.987L83.466 46.404H142.525L190.287 214H137.806ZM109.206 95.596L96.622 158.087H124.364L109.206 95.596ZM270.717 214C260.039 214 250.506 211.76 242.117 207.279V214H195.499V52.267L186.919 47.119V33.82L232.822 26.67H242.117V103.604C243.642 101.888 245.31 100.267 247.122 98.742C248.933 97.2167 251.126 95.739 253.7 94.309C256.274 92.879 259.181 91.735 262.423 90.877C265.759 90.019 269.287 89.59 273.005 89.59C288.735 89.59 300.27 94.9763 307.611 105.749C315.047 116.522 318.765 131.441 318.765 150.508C318.765 159.469 317.764 167.763 315.762 175.39C313.76 182.921 310.804 189.595 306.896 195.41C302.987 201.225 297.934 205.801 291.738 209.138C285.636 212.379 278.629 214 270.717 214ZM249.696 194.123C262.47 194.123 268.858 184.351 268.858 164.808V140.498C268.858 132.299 267.332 126.007 264.282 121.622C261.326 117.141 257.513 114.901 252.842 114.901C249.314 114.901 245.739 116.188 242.117 118.762V193.122C243.547 193.503 244.881 193.789 246.121 193.98C247.36 194.075 248.552 194.123 249.696 194.123ZM391.144 199.843C395.339 199.843 398.532 198.127 400.725 194.695C403.013 191.168 404.157 186.353 404.157 180.252V135.064C404.157 116.474 399.772 107.179 391.001 107.179C386.902 107.179 383.708 108.847 381.42 112.184C379.132 115.521 377.988 120.24 377.988 126.341V172.816C377.988 190.834 382.373 199.843 391.144 199.843ZM390 217.003C368.169 217.003 352.2 212.046 342.095 202.131C331.99 192.216 326.937 176.391 326.937 154.655C326.937 133.11 332.037 116.903 342.238 106.035C352.439 95.0717 369.027 89.59 392.002 89.59C414.405 89.59 430.564 94.8333 440.479 105.32C450.489 115.711 455.494 131.489 455.494 152.653C455.494 174.58 450.203 190.786 439.621 201.273C429.134 211.76 412.594 217.003 390 217.003ZM540.999 194.981C540.427 196.316 539.235 198.079 537.424 200.272C535.708 202.465 533.42 204.896 530.56 207.565C527.7 210.139 524.173 212.332 519.978 214.143C515.783 216.05 511.541 217.003 507.251 217.003C493.809 217.003 484.18 212.999 478.365 204.991C472.645 196.983 469.785 183.636 469.785 164.951V114.043L464.78 108.895V92.45H516.689V173.96C516.594 178.25 517.309 181.444 518.834 183.541C520.359 185.543 523.124 186.544 527.128 186.544C527.7 186.544 528.224 186.544 528.701 186.544C529.178 186.449 529.654 186.353 530.131 186.258C530.608 186.067 530.989 185.924 531.275 185.829C531.656 185.734 532.085 185.591 532.562 185.4C533.039 185.114 533.42 184.876 533.706 184.685C533.992 184.494 534.373 184.256 534.85 183.97C535.327 183.589 535.66 183.303 535.851 183.112C536.137 182.921 536.518 182.635 536.995 182.254C537.567 181.777 537.996 181.444 538.282 181.253V114.043L530.56 108.895V92.45H585.043V214H545.432L540.999 194.981ZM638.178 217.003C625.308 217.003 616.299 213.142 611.151 205.42C606.098 197.698 603.572 184.637 603.572 166.238V117.618H593.705V97.741L610.579 92.45L625.165 59.131H650.333V92.45H673.785V117.618H649.904V170.814C649.904 178.441 651 183.493 653.193 185.972C655.385 188.451 658.77 189.69 663.346 189.69C665.348 189.69 667.159 189.452 668.78 188.975C670.4 188.498 671.735 187.831 672.784 186.973V206.421C671.354 207.851 669.495 209.281 667.207 210.711C664.919 212.046 661.105 213.428 655.767 214.858C650.523 216.288 644.66 217.003 638.178 217.003Z"/>
</mask>
<path d="M137.806 214L123.222 217.509L125.987 229H137.806V214ZM131.371 187.259L145.955 183.75L143.19 172.259H131.371V187.259ZM90.759 187.259V172.259H78.5006L76.0594 184.272L90.759 187.259ZM85.325 214V229H97.5834L100.025 216.987L85.325 214ZM43.283 214L28.8369 209.961L23.5145 229H43.283V214ZM86.898 57.987L101.344 62.0256L102.507 57.8664L101.28 53.7257L86.898 57.987ZM83.466 46.404V31.404H63.377L69.084 50.6653L83.466 46.404ZM142.525 46.404L156.951 42.2929L153.847 31.404H142.525V46.404ZM190.287 214V229H210.159L204.713 209.889L190.287 214ZM109.206 95.596L123.783 92.0601L94.5012 92.6348L109.206 95.596ZM96.622 158.087L81.9172 155.126L78.3003 173.087H96.622V158.087ZM124.364 158.087V173.087H143.437L138.941 154.551L124.364 158.087ZM152.39 210.491L145.955 183.75L116.787 190.768L123.222 217.509L152.39 210.491ZM131.371 172.259H90.759V202.259H131.371V172.259ZM76.0594 184.272L70.6254 211.013L100.025 216.987L105.459 190.246L76.0594 184.272ZM85.325 199H43.283V229H85.325V199ZM57.7291 218.039L101.344 62.0256L72.4519 53.9485L28.8369 209.961L57.7291 218.039ZM101.28 53.7257L97.848 42.1427L69.084 50.6653L72.516 62.2483L101.28 53.7257ZM83.466 61.404H142.525V31.404H83.466V61.404ZM128.099 50.5151L175.861 218.111L204.713 209.889L156.951 42.2929L128.099 50.5151ZM190.287 199H137.806V229H190.287V199ZM94.5012 92.6348L81.9172 155.126L111.327 161.048L123.911 98.5572L94.5012 92.6348ZM96.622 173.087H124.364V143.087H96.622V173.087ZM138.941 154.551L123.783 92.0601L94.6287 99.1319L109.787 161.623L138.941 154.551ZM242.117 207.279L249.183 194.048L227.117 182.262V207.279H242.117ZM242.117 214V229H257.117V214H242.117ZM195.499 214H180.499V229H195.499V214ZM195.499 52.267H210.499V43.7741L203.216 39.4046L195.499 52.267ZM186.919 47.119H171.919V55.6119L179.201 59.9814L186.919 47.119ZM186.919 33.82L184.61 18.9987L171.919 20.9756V33.82H186.919ZM232.822 26.67V11.67H231.66L230.513 11.8487L232.822 26.67ZM242.117 26.67H257.117V11.67H242.117V26.67ZM242.117 103.604H227.117V143.057L253.328 113.569L242.117 103.604ZM253.7 94.309L260.984 107.421L260.984 107.421L253.7 94.309ZM262.423 90.877L258.687 76.3496L258.636 76.3628L258.584 76.3764L262.423 90.877ZM307.611 105.749L295.215 114.196L295.24 114.233L295.266 114.27L307.611 105.749ZM315.762 175.39L330.258 179.244L330.264 179.221L330.27 179.198L315.762 175.39ZM306.896 195.41L294.446 187.042L294.446 187.042L306.896 195.41ZM291.738 209.138L298.775 222.385L298.812 222.365L298.849 222.345L291.738 209.138ZM264.282 121.622L251.76 129.881L251.862 130.036L251.968 130.188L264.282 121.622ZM242.117 118.762L233.429 106.534L227.117 111.019V118.762H242.117ZM242.117 193.122H227.117V204.646L238.252 207.616L242.117 193.122ZM246.121 193.98L243.84 208.806L244.403 208.892L244.97 208.936L246.121 193.98ZM270.717 199C262.198 199 255.143 197.231 249.183 194.048L235.05 220.51C245.869 226.289 257.881 229 270.717 229V199ZM227.117 207.279V214H257.117V207.279H227.117ZM242.117 199H195.499V229H242.117V199ZM210.499 214V52.267H180.499V214H210.499ZM203.216 39.4046L194.636 34.2566L179.201 59.9814L187.781 65.1294L203.216 39.4046ZM201.919 47.119V33.82H171.919V47.119H201.919ZM189.227 48.6413L235.13 41.4913L230.513 11.8487L184.61 18.9987L189.227 48.6413ZM232.822 41.67H242.117V11.67H232.822V41.67ZM227.117 26.67V103.604H257.117V26.67H227.117ZM253.328 113.569C254.359 112.409 255.507 111.291 256.784 110.216L237.46 87.2683C235.114 89.2439 232.925 91.3666 230.906 93.6385L253.328 113.569ZM256.784 110.216C257.705 109.44 259.059 108.491 260.984 107.421L246.415 81.1966C243.192 82.9872 240.161 84.9932 237.46 87.2683L256.784 110.216ZM260.984 107.421C262.334 106.672 264.059 105.961 266.261 105.378L258.584 76.3764C254.304 77.5095 250.214 79.0862 246.415 81.1967L260.984 107.421ZM266.158 105.404C268.182 104.884 270.448 104.59 273.005 104.59V74.59C268.126 74.59 263.336 75.1541 258.687 76.3496L266.158 105.404ZM273.005 104.59C284.944 104.59 291.269 108.404 295.215 114.196L320.006 97.3023C309.271 81.5484 292.525 74.59 273.005 74.59V104.59ZM295.266 114.27C300.349 121.633 303.765 133.162 303.765 150.508H333.765C333.765 129.721 329.745 111.41 319.955 97.2279L295.266 114.27ZM303.765 150.508C303.765 158.356 302.888 165.354 301.253 171.582L330.27 179.198C332.639 170.173 333.765 160.583 333.765 150.508H303.765ZM301.265 171.536C299.643 177.639 297.329 182.754 294.446 187.042L319.345 203.778C324.28 196.436 327.876 188.204 330.258 179.244L301.265 171.536ZM294.446 187.042C291.904 190.826 288.687 193.744 284.626 195.931L298.849 222.345C307.182 217.858 314.07 211.625 319.345 203.778L294.446 187.042ZM284.7 195.891C281.063 197.824 276.535 199 270.717 199V229C280.724 229 290.21 226.935 298.775 222.385L284.7 195.891ZM249.696 209.123C260.58 209.123 270.363 204.579 276.623 195.001C282.159 186.532 283.858 175.736 283.858 164.808H253.858C253.858 173.424 252.363 177.285 251.512 178.587C251.22 179.033 251.132 178.996 251.265 178.928C251.341 178.889 250.963 179.123 249.696 179.123V209.123ZM283.858 164.808V140.498H253.858V164.808H283.858ZM283.858 140.498C283.858 130.766 282.102 120.972 276.595 113.056L251.968 130.188C252.563 131.043 253.858 133.832 253.858 140.498H283.858ZM276.803 113.363C271.555 105.406 263.373 99.901 252.842 99.901V129.901C252.8 129.901 252.622 129.895 252.355 129.824C252.083 129.752 251.823 129.641 251.607 129.514C251.159 129.251 251.279 129.152 251.76 129.881L276.803 113.363ZM252.842 99.901C245.475 99.901 238.926 102.628 233.429 106.534L250.805 130.99C251.688 130.362 252.286 130.091 252.596 129.98C252.88 129.877 252.939 129.901 252.842 129.901V99.901ZM227.117 118.762V193.122H257.117V118.762H227.117ZM238.252 207.616C240.113 208.112 241.982 208.52 243.84 208.806L248.402 179.154C247.781 179.059 246.98 178.895 245.982 178.628L238.252 207.616ZM244.97 208.936C246.56 209.058 248.137 209.123 249.696 209.123V179.123C248.967 179.123 248.16 179.093 247.271 179.024L244.97 208.936ZM400.725 194.695L388.14 186.532L388.112 186.576L388.084 186.619L400.725 194.695ZM342.095 202.131L331.59 212.838L331.59 212.838L342.095 202.131ZM342.238 106.035L353.175 116.3L353.197 116.277L353.22 116.253L342.238 106.035ZM440.479 105.32L429.579 115.625L429.627 115.676L429.676 115.727L440.479 105.32ZM439.621 201.273L429.062 190.619L429.038 190.642L429.014 190.666L439.621 201.273ZM391.144 214.843C400.272 214.843 408.318 210.671 413.365 202.771L388.084 186.619C388.193 186.449 388.66 185.84 389.585 185.343C390.492 184.856 391.155 184.843 391.144 184.843V214.843ZM413.309 202.858C417.734 196.036 419.157 188.012 419.157 180.252H389.157C389.157 184.695 388.291 186.3 388.14 186.532L413.309 202.858ZM419.157 180.252V135.064H389.157V180.252H419.157ZM419.157 135.064C419.157 125.065 418.053 115.421 414.434 107.75C412.532 103.718 409.677 99.6844 405.412 96.671C401.009 93.5601 396.004 92.179 391.001 92.179V122.179C390.384 122.179 389.215 121.96 388.101 121.173C387.125 120.483 387.011 119.935 387.302 120.551C388.068 122.175 389.157 126.473 389.157 135.064H419.157ZM391.001 92.179C382.034 92.179 374.178 96.221 369.049 103.701L393.791 120.667C393.72 120.77 393.31 121.29 392.476 121.725C392.094 121.925 391.734 122.047 391.441 122.114C391.156 122.179 390.995 122.179 391.001 122.179V92.179ZM369.049 103.701C364.382 110.508 362.988 118.656 362.988 126.341H392.988C392.988 121.823 393.882 120.534 393.791 120.667L369.049 103.701ZM362.988 126.341V172.816H392.988V126.341H362.988ZM362.988 172.816C362.988 182.562 364.096 192.063 367.79 199.651C369.737 203.651 372.638 207.603 376.913 210.53C381.302 213.536 386.243 214.843 391.144 214.843V184.843C391.66 184.843 392.763 185.024 393.863 185.778C394.849 186.453 395.01 187.026 394.764 186.521C394.494 185.967 394.01 184.661 393.617 182.238C393.23 179.857 392.988 176.752 392.988 172.816H362.988ZM390 202.003C370.022 202.003 358.705 197.413 352.6 191.424L331.59 212.838C345.696 226.678 366.315 232.003 390 232.003V202.003ZM352.6 191.424C346.593 185.53 341.937 174.48 341.937 154.655H311.937C311.937 178.302 317.386 198.903 331.59 212.838L352.6 191.424ZM341.937 154.655C341.937 135.236 346.547 123.362 353.175 116.3L331.301 95.7695C317.528 110.444 311.937 130.983 311.937 154.655H341.937ZM353.22 116.253C359.367 109.646 370.988 104.59 392.002 104.59V74.59C367.065 74.59 345.51 80.4976 331.256 95.8173L353.22 116.253ZM392.002 104.59C412.521 104.59 423.737 109.445 429.579 115.625L451.379 95.0148C437.392 80.2213 416.29 74.59 392.002 74.59V104.59ZM429.676 115.727C435.962 122.252 440.494 133.574 440.494 152.653H470.494C470.494 129.404 465.016 109.17 451.282 94.9135L429.676 115.727ZM440.494 152.653C440.494 172.46 435.698 184.043 429.062 190.619L450.179 211.927C464.708 197.529 470.494 176.699 470.494 152.653H440.494ZM429.014 190.666C422.515 197.165 410.661 202.003 390 202.003V232.003C414.527 232.003 435.753 226.354 450.228 211.88L429.014 190.666ZM540.999 194.981L555.607 191.576L545.226 147.038L527.212 189.072L540.999 194.981ZM537.424 200.272L525.86 190.719L525.733 190.871L525.611 191.027L537.424 200.272ZM530.56 207.565L540.594 218.714L540.695 218.624L540.795 218.531L530.56 207.565ZM519.978 214.143L514.031 200.372L513.901 200.429L513.771 200.488L519.978 214.143ZM478.365 204.991L466.159 213.71L466.193 213.757L466.228 213.805L478.365 204.991ZM469.785 114.043H484.785V107.953L480.54 103.587L469.785 114.043ZM464.78 108.895H449.78V114.985L454.025 119.351L464.78 108.895ZM464.78 92.45V77.45H449.78V92.45H464.78ZM516.689 92.45H531.689V77.45H516.689V92.45ZM516.689 173.96L531.685 174.293L531.689 174.127V173.96H516.689ZM518.834 183.541L506.703 192.364L506.801 192.499L506.902 192.632L518.834 183.541ZM528.701 186.544V201.544H530.186L531.643 201.253L528.701 186.544ZM530.131 186.258L533.073 200.967L534.423 200.697L535.702 200.185L530.131 186.258ZM531.275 185.829L527.637 171.277L527.078 171.417L526.531 171.599L531.275 185.829ZM532.562 185.4L538.133 199.327L539.249 198.881L540.279 198.262L532.562 185.4ZM533.706 184.685L525.386 172.204L525.385 172.204L533.706 184.685ZM534.85 183.97L542.567 196.832L543.433 196.313L544.22 195.683L534.85 183.97ZM535.851 183.112L527.53 170.631L526.295 171.455L525.244 172.505L535.851 183.112ZM536.995 182.254L546.365 193.967L546.483 193.873L546.598 193.777L536.995 182.254ZM538.282 181.253L546.602 193.734L553.282 189.281V181.253H538.282ZM538.282 114.043H553.282V106.015L546.602 101.562L538.282 114.043ZM530.56 108.895H515.56V116.923L522.239 121.376L530.56 108.895ZM530.56 92.45V77.45H515.56V92.45H530.56ZM585.043 92.45H600.043V77.45H585.043V92.45ZM585.043 214V229H600.043V214H585.043ZM545.432 214L530.824 217.405L533.526 229H545.432V214ZM527.212 189.072C527.275 188.924 527.328 188.816 527.361 188.749C527.395 188.682 527.416 188.646 527.418 188.642C527.419 188.639 527.37 188.725 527.247 188.907C526.993 189.283 526.553 189.879 525.86 190.719L548.988 209.825C551.015 207.372 553.34 204.263 554.786 200.89L527.212 189.072ZM525.611 191.027C524.525 192.416 522.824 194.267 520.325 196.599L540.795 218.531C544.016 215.525 546.891 212.513 549.237 209.517L525.611 191.027ZM520.526 196.416C519.079 197.717 517.003 199.089 514.031 200.372L525.925 227.914C531.342 225.574 536.321 222.561 540.594 218.714L520.526 196.416ZM513.771 200.488C511.379 201.575 509.244 202.003 507.251 202.003V232.003C513.838 232.003 520.188 230.525 526.185 227.798L513.771 200.488ZM507.251 202.003C496.748 202.003 492.555 199.003 490.502 196.177L466.228 213.805C475.806 226.995 490.87 232.003 507.251 232.003V202.003ZM490.571 196.272C487.688 192.237 484.785 182.908 484.785 164.951H454.785C454.785 184.365 457.602 201.729 466.159 213.71L490.571 196.272ZM484.785 164.951V114.043H454.785V164.951H484.785ZM480.54 103.587L475.535 98.4388L454.025 119.351L459.03 124.499L480.54 103.587ZM479.78 108.895V92.45H449.78V108.895H479.78ZM464.78 107.45H516.689V77.45H464.78V107.45ZM501.689 92.45V173.96H531.689V92.45H501.689ZM501.693 173.627C501.568 179.234 502.343 186.369 506.703 192.364L530.965 174.718C531.679 175.701 531.814 176.398 531.791 176.296C531.783 176.258 531.747 176.081 531.718 175.734C531.69 175.389 531.671 174.914 531.685 174.293L501.693 173.627ZM506.902 192.632C512.611 200.123 521.232 201.544 527.128 201.544V171.544C526.28 171.544 526.429 171.425 527.158 171.689C528.02 172.001 529.505 172.796 530.765 174.45L506.902 192.632ZM527.128 201.544C527.129 201.544 527.13 201.544 527.131 201.544C527.132 201.544 527.134 201.544 527.135 201.544C527.136 201.544 527.137 201.544 527.138 201.544C527.139 201.544 527.14 201.544 527.141 201.544C527.142 201.544 527.144 201.544 527.145 201.544C527.146 201.544 527.147 201.544 527.148 201.544C527.149 201.544 527.15 201.544 527.151 201.544C527.153 201.544 527.154 201.544 527.155 201.544C527.156 201.544 527.157 201.544 527.158 201.544C527.159 201.544 527.16 201.544 527.161 201.544C527.163 201.544 527.164 201.544 527.165 201.544C527.166 201.544 527.167 201.544 527.168 201.544C527.169 201.544 527.17 201.544 527.171 201.544C527.173 201.544 527.174 201.544 527.175 201.544C527.176 201.544 527.177 201.544 527.178 201.544C527.179 201.544 527.18 201.544 527.181 201.544C527.183 201.544 527.184 201.544 527.185 201.544C527.186 201.544 527.187 201.544 527.188 201.544C527.189 201.544 527.19 201.544 527.191 201.544C527.193 201.544 527.194 201.544 527.195 201.544C527.196 201.544 527.197 201.544 527.198 201.544C527.199 201.544 527.2 201.544 527.201 201.544C527.203 201.544 527.204 201.544 527.205 201.544C527.206 201.544 527.207 201.544 527.208 201.544C527.209 201.544 527.21 201.544 527.211 201.544C527.213 201.544 527.214 201.544 527.215 201.544C527.216 201.544 527.217 201.544 527.218 201.544C527.219 201.544 527.22 201.544 527.221 201.544C527.222 201.544 527.224 201.544 527.225 201.544C527.226 201.544 527.227 201.544 527.228 201.544C527.229 201.544 527.23 201.544 527.231 201.544C527.232 201.544 527.234 201.544 527.235 201.544C527.236 201.544 527.237 201.544 527.238 201.544C527.239 201.544 527.24 201.544 527.241 201.544C527.242 201.544 527.244 201.544 527.245 201.544C527.246 201.544 527.247 201.544 527.248 201.544C527.249 201.544 527.25 201.544 527.251 201.544C527.252 201.544 527.253 201.544 527.255 201.544C527.256 201.544 527.257 201.544 527.258 201.544C527.259 201.544 527.26 201.544 527.261 201.544C527.262 201.544 527.263 201.544 527.264 201.544C527.266 201.544 527.267 201.544 527.268 201.544C527.269 201.544 527.27 201.544 527.271 201.544C527.272 201.544 527.273 201.544 527.274 201.544C527.275 201.544 527.277 201.544 527.278 201.544C527.279 201.544 527.28 201.544 527.281 201.544C527.282 201.544 527.283 201.544 527.284 201.544C527.285 201.544 527.286 201.544 527.288 201.544C527.289 201.544 527.29 201.544 527.291 201.544C527.292 201.544 527.293 201.544 527.294 201.544C527.295 201.544 527.296 201.544 527.297 201.544C527.299 201.544 527.3 201.544 527.301 201.544C527.302 201.544 527.303 201.544 527.304 201.544C527.305 201.544 527.306 201.544 527.307 201.544C527.308 201.544 527.31 201.544 527.311 201.544C527.312 201.544 527.313 201.544 527.314 201.544C527.315 201.544 527.316 201.544 527.317 201.544C527.318 201.544 527.319 201.544 527.321 201.544C527.322 201.544 527.323 201.544 527.324 201.544C527.325 201.544 527.326 201.544 527.327 201.544C527.328 201.544 527.329 201.544 527.33 201.544C527.331 201.544 527.333 201.544 527.334 201.544C527.335 201.544 527.336 201.544 527.337 201.544C527.338 201.544 527.339 201.544 527.34 201.544C527.341 201.544 527.342 201.544 527.344 201.544C527.345 201.544 527.346 201.544 527.347 201.544C527.348 201.544 527.349 201.544 527.35 201.544C527.351 201.544 527.352 201.544 527.353 201.544C527.354 201.544 527.356 201.544 527.357 201.544C527.358 201.544 527.359 201.544 527.36 201.544C527.361 201.544 527.362 201.544 527.363 201.544C527.364 201.544 527.365 201.544 527.366 201.544C527.368 201.544 527.369 201.544 527.37 201.544C527.371 201.544 527.372 201.544 527.373 201.544C527.374 201.544 527.375 201.544 527.376 201.544C527.377 201.544 527.378 201.544 527.38 201.544C527.381 201.544 527.382 201.544 527.383 201.544C527.384 201.544 527.385 201.544 527.386 201.544C527.387 201.544 527.388 201.544 527.389 201.544C527.39 201.544 527.392 201.544 527.393 201.544C527.394 201.544 527.395 201.544 527.396 201.544C527.397 201.544 527.398 201.544 527.399 201.544C527.4 201.544 527.401 201.544 527.402 201.544C527.403 201.544 527.405 201.544 527.406 201.544C527.407 201.544 527.408 201.544 527.409 201.544C527.41 201.544 527.411 201.544 527.412 201.544C527.413 201.544 527.414 201.544 527.415 201.544C527.417 201.544 527.418 201.544 527.419 201.544C527.42 201.544 527.421 201.544 527.422 201.544C527.423 201.544 527.424 201.544 527.425 201.544C527.426 201.544 527.427 201.544 527.428 201.544C527.43 201.544 527.431 201.544 527.432 201.544C527.433 201.544 527.434 201.544 527.435 201.544C527.436 201.544 527.437 201.544 527.438 201.544C527.439 201.544 527.44 201.544 527.441 201.544C527.443 201.544 527.444 201.544 527.445 201.544C527.446 201.544 527.447 201.544 527.448 201.544C527.449 201.544 527.45 201.544 527.451 201.544C527.452 201.544 527.453 201.544 527.454 201.544C527.456 201.544 527.457 201.544 527.458 201.544C527.459 201.544 527.46 201.544 527.461 201.544C527.462 201.544 527.463 201.544 527.464 201.544C527.465 201.544 527.466 201.544 527.467 201.544C527.468 201.544 527.47 201.544 527.471 201.544C527.472 201.544 527.473 201.544 527.474 201.544C527.475 201.544 527.476 201.544 527.477 201.544C527.478 201.544 527.479 201.544 527.48 201.544C527.481 201.544 527.482 201.544 527.484 201.544C527.485 201.544 527.486 201.544 527.487 201.544C527.488 201.544 527.489 201.544 527.49 201.544C527.491 201.544 527.492 201.544 527.493 201.544C527.494 201.544 527.495 201.544 527.497 201.544C527.498 201.544 527.499 201.544 527.5 201.544C527.501 201.544 527.502 201.544 527.503 201.544C527.504 201.544 527.505 201.544 527.506 201.544C527.507 201.544 527.508 201.544 527.509 201.544C527.51 201.544 527.512 201.544 527.513 201.544C527.514 201.544 527.515 201.544 527.516 201.544C527.517 201.544 527.518 201.544 527.519 201.544C527.52 201.544 527.521 201.544 527.522 201.544C527.523 201.544 527.524 201.544 527.526 201.544C527.527 201.544 527.528 201.544 527.529 201.544C527.53 201.544 527.531 201.544 527.532 201.544C527.533 201.544 527.534 201.544 527.535 201.544C527.536 201.544 527.537 201.544 527.538 201.544C527.539 201.544 527.541 201.544 527.542 201.544C527.543 201.544 527.544 201.544 527.545 201.544C527.546 201.544 527.547 201.544 527.548 201.544C527.549 201.544 527.55 201.544 527.551 201.544C527.552 201.544 527.553 201.544 527.554 201.544C527.556 201.544 527.557 201.544 527.558 201.544C527.559 201.544 527.56 201.544 527.561 201.544C527.562 201.544 527.563 201.544 527.564 201.544C527.565 201.544 527.566 201.544 527.567 201.544C527.568 201.544 527.569 201.544 527.57 201.544C527.572 201.544 527.573 201.544 527.574 201.544C527.575 201.544 527.576 201.544 527.577 201.544C527.578 201.544 527.579 201.544 527.58 201.544C527.581 201.544 527.582 201.544 527.583 201.544C527.584 201.544 527.585 201.544 527.586 201.544C527.588 201.544 527.589 201.544 527.59 201.544C527.591 201.544 527.592 201.544 527.593 201.544C527.594 201.544 527.595 201.544 527.596 201.544C527.597 201.544 527.598 201.544 527.599 201.544C527.6 201.544 527.601 201.544 527.602 201.544C527.604 201.544 527.605 201.544 527.606 201.544C527.607 201.544 527.608 201.544 527.609 201.544C527.61 201.544 527.611 201.544 527.612 201.544C527.613 201.544 527.614 201.544 527.615 201.544C527.616 201.544 527.617 201.544 527.618 201.544C527.619 201.544 527.621 201.544 527.622 201.544C527.623 201.544 527.624 201.544 527.625 201.544C527.626 201.544 527.627 201.544 527.628 201.544C527.629 201.544 527.63 201.544 527.631 201.544C527.632 201.544 527.633 201.544 527.634 201.544C527.635 201.544 527.636 201.544 527.638 201.544C527.639 201.544 527.64 201.544 527.641 201.544C527.642 201.544 527.643 201.544 527.644 201.544C527.645 201.544 527.646 201.544 527.647 201.544C527.648 201.544 527.649 201.544 527.65 201.544C527.651 201.544 527.652 201.544 527.653 201.544C527.654 201.544 527.656 201.544 527.657 201.544C527.658 201.544 527.659 201.544 527.66 201.544C527.661 201.544 527.662 201.544 527.663 201.544C527.664 201.544 527.665 201.544 527.666 201.544C527.667 201.544 527.668 201.544 527.669 201.544C527.67 201.544 527.671 201.544 527.672 201.544C527.674 201.544 527.675 201.544 527.676 201.544C527.677 201.544 527.678 201.544 527.679 201.544C527.68 201.544 527.681 201.544 527.682 201.544C527.683 201.544 527.684 201.544 527.685 201.544C527.686 201.544 527.687 201.544 527.688 201.544C527.689 201.544 527.69 201.544 527.691 201.544C527.693 201.544 527.694 201.544 527.695 201.544C527.696 201.544 527.697 201.544 527.698 201.544C527.699 201.544 527.7 201.544 527.701 201.544C527.702 201.544 527.703 201.544 527.704 201.544C527.705 201.544 527.706 201.544 527.707 201.544C527.708 201.544 527.709 201.544 527.71 201.544C527.711 201.544 527.713 201.544 527.714 201.544C527.715 201.544 527.716 201.544 527.717 201.544C527.718 201.544 527.719 201.544 527.72 201.544C527.721 201.544 527.722 201.544 527.723 201.544C527.724 201.544 527.725 201.544 527.726 201.544C527.727 201.544 527.728 201.544 527.729 201.544C527.73 201.544 527.731 201.544 527.732 201.544C527.734 201.544 527.735 201.544 527.736 201.544C527.737 201.544 527.738 201.544 527.739 201.544C527.74 201.544 527.741 201.544 527.742 201.544C527.743 201.544 527.744 201.544 527.745 201.544C527.746 201.544 527.747 201.544 527.748 201.544C527.749 201.544 527.75 201.544 527.751 201.544C527.752 201.544 527.753 201.544 527.755 201.544C527.756 201.544 527.757 201.544 527.758 201.544C527.759 201.544 527.76 201.544 527.761 201.544C527.762 201.544 527.763 201.544 527.764 201.544C527.765 201.544 527.766 201.544 527.767 201.544C527.768 201.544 527.769 201.544 527.77 201.544C527.771 201.544 527.772 201.544 527.773 201.544C527.774 201.544 527.775 201.544 527.776 201.544C527.778 201.544 527.779 201.544 527.78 201.544C527.781 201.544 527.782 201.544 527.783 201.544C527.784 201.544 527.785 201.544 527.786 201.544C527.787 201.544 527.788 201.544 527.789 201.544C527.79 201.544 527.791 201.544 527.792 201.544C527.793 201.544 527.794 201.544 527.795 201.544C527.796 201.544 527.797 201.544 527.798 201.544C527.799 201.544 527.8 201.544 527.801 201.544C527.803 201.544 527.804 201.544 527.805 201.544C527.806 201.544 527.807 201.544 527.808 201.544C527.809 201.544 527.81 201.544 527.811 201.544C527.812 201.544 527.813 201.544 527.814 201.544C527.815 201.544 527.816 201.544 527.817 201.544C527.818 201.544 527.819 201.544 527.82 201.544C527.821 201.544 527.822 201.544 527.823 201.544C527.824 201.544 527.825 201.544 527.826 201.544C527.827 201.544 527.829 201.544 527.83 201.544C527.831 201.544 527.832 201.544 527.833 201.544C527.834 201.544 527.835 201.544 527.836 201.544C527.837 201.544 527.838 201.544 527.839 201.544C527.84 201.544 527.841 201.544 527.842 201.544C527.843 201.544 527.844 201.544 527.845 201.544C527.846 201.544 527.847 201.544 527.848 201.544C527.849 201.544 527.85 201.544 527.851 201.544C527.852 201.544 527.853 201.544 527.854 201.544C527.855 201.544 527.857 201.544 527.858 201.544C527.859 201.544 527.86 201.544 527.861 201.544C527.862 201.544 527.863 201.544 527.864 201.544C527.865 201.544 527.866 201.544 527.867 201.544C527.868 201.544 527.869 201.544 527.87 201.544C527.871 201.544 527.872 201.544 527.873 201.544C527.874 201.544 527.875 201.544 527.876 201.544C527.877 201.544 527.878 201.544 527.879 201.544C527.88 201.544 527.881 201.544 527.882 201.544C527.883 201.544 527.884 201.544 527.885 201.544C527.886 201.544 527.888 201.544 527.889 201.544C527.89 201.544 527.891 201.544 527.892 201.544C527.893 201.544 527.894 201.544 527.895 201.544C527.896 201.544 527.897 201.544 527.898 201.544C527.899 201.544 527.9 201.544 527.901 201.544C527.902 201.544 527.903 201.544 527.904 201.544C527.905 201.544 527.906 201.544 527.907 201.544C527.908 201.544 527.909 201.544 527.91 201.544C527.911 201.544 527.912 201.544 527.913 201.544C527.914 201.544 527.915 201.544 527.916 201.544C527.917 201.544 527.918 201.544 527.919 201.544C527.92 201.544 527.921 201.544 527.923 201.544C527.924 201.544 527.925 201.544 527.926 201.544C527.927 201.544 527.928 201.544 527.929 201.544C527.93 201.544 527.931 201.544 527.932 201.544C527.933 201.544 527.934 201.544 527.935 201.544C527.936 201.544 527.937 201.544 527.938 201.544C527.939 201.544 527.94 201.544 527.941 201.544C527.942 201.544 527.943 201.544 527.944 201.544C527.945 201.544 527.946 201.544 527.947 201.544C527.948 201.544 527.949 201.544 527.95 201.544C527.951 201.544 527.952 201.544 527.953 201.544C527.954 201.544 527.955 201.544 527.956 201.544C527.957 201.544 527.958 201.544 527.959 201.544C527.96 201.544 527.961 201.544 527.963 201.544C527.964 201.544 527.965 201.544 527.966 201.544C527.967 201.544 527.968 201.544 527.969 201.544C527.97 201.544 527.971 201.544 527.972 201.544C527.973 201.544 527.974 201.544 527.975 201.544C527.976 201.544 527.977 201.544 527.978 201.544C527.979 201.544 527.98 201.544 527.981 201.544C527.982 201.544 527.983 201.544 527.984 201.544C527.985 201.544 527.986 201.544 527.987 201.544C527.988 201.544 527.989 201.544 527.99 201.544C527.991 201.544 527.992 201.544 527.993 201.544C527.994 201.544 527.995 201.544 527.996 201.544C527.997 201.544 527.998 201.544 527.999 201.544C528 201.544 528.001 201.544 528.002 201.544C528.003 201.544 528.004 201.544 528.005 201.544C528.006 201.544 528.007 201.544 528.008 201.544C528.009 201.544 528.01 201.544 528.011 201.544C528.012 201.544 528.013 201.544 528.014 201.544C528.016 201.544 528.017 201.544 528.018 201.544C528.019 201.544 528.02 201.544 528.021 201.544C528.022 201.544 528.023 201.544 528.024 201.544C528.025 201.544 528.026 201.544 528.027 201.544C528.028 201.544 528.029 201.544 528.03 201.544C528.031 201.544 528.032 201.544 528.033 201.544C528.034 201.544 528.035 201.544 528.036 201.544C528.037 201.544 528.038 201.544 528.039 201.544C528.04 201.544 528.041 201.544 528.042 201.544C528.043 201.544 528.044 201.544 528.045 201.544C528.046 201.544 528.047 201.544 528.048 201.544C528.049 201.544 528.05 201.544 528.051 201.544C528.052 201.544 528.053 201.544 528.054 201.544C528.055 201.544 528.056 201.544 528.057 201.544C528.058 201.544 528.059 201.544 528.06 201.544C528.061 201.544 528.062 201.544 528.063 201.544C528.064 201.544 528.065 201.544 528.066 201.544C528.067 201.544 528.068 201.544 528.069 201.544C528.07 201.544 528.071 201.544 528.072 201.544C528.073 201.544 528.074 201.544 528.075 201.544C528.076 201.544 528.077 201.544 528.078 201.544C528.079 201.544 528.08 201.544 528.081 201.544C528.082 201.544 528.083 201.544 528.084 201.544C528.085 201.544 528.086 201.544 528.087 201.544C528.088 201.544 528.089 201.544 528.09 201.544C528.091 201.544 528.092 201.544 528.093 201.544C528.094 201.544 528.095 201.544 528.096 201.544C528.097 201.544 528.098 201.544 528.099 201.544C528.1 201.544 528.101 201.544 528.102 201.544C528.103 201.544 528.104 201.544 528.105 201.544C528.106 201.544 528.107 201.544 528.109 201.544C528.11 201.544 528.111 201.544 528.112 201.544C528.113 201.544 528.114 201.544 528.115 201.544C528.116 201.544 528.117 201.544 528.118 201.544C528.119 201.544 528.12 201.544 528.121 201.544C528.122 201.544 528.123 201.544 528.124 201.544C528.125 201.544 528.126 201.544 528.127 201.544C528.128 201.544 528.129 201.544 528.13 201.544C528.131 201.544 528.132 201.544 528.133 201.544C528.134 201.544 528.135 201.544 528.136 201.544C528.137 201.544 528.138 201.544 528.139 201.544C528.14 201.544 528.141 201.544 528.142 201.544C528.143 201.544 528.144 201.544 528.145 201.544C528.146 201.544 528.147 201.544 528.148 201.544C528.149 201.544 528.15 201.544 528.151 201.544C528.152 201.544 528.153 201.544 528.154 201.544C528.155 201.544 528.156 201.544 528.157 201.544C528.158 201.544 528.159 201.544 528.16 201.544C528.161 201.544 528.162 201.544 528.163 201.544C528.164 201.544 528.165 201.544 528.166 201.544C528.167 201.544 528.168 201.544 528.169 201.544C528.17 201.544 528.171 201.544 528.172 201.544C528.173 201.544 528.174 201.544 528.175 201.544C528.176 201.544 528.177 201.544 528.178 201.544C528.179 201.544 528.18 201.544 528.181 201.544C528.182 201.544 528.183 201.544 528.184 201.544C528.185 201.544 528.186 201.544 528.187 201.544C528.188 201.544 528.189 201.544 528.19 201.544C528.191 201.544 528.192 201.544 528.193 201.544C528.194 201.544 528.194 201.544 528.195 201.544C528.196 201.544 528.197 201.544 528.198 201.544C528.199 201.544 528.2 201.544 528.201 201.544C528.202 201.544 528.203 201.544 528.204 201.544C528.205 201.544 528.206 201.544 528.207 201.544C528.208 201.544 528.209 201.544 528.21 201.544C528.211 201.544 528.212 201.544 528.213 201.544C528.214 201.544 528.215 201.544 528.216 201.544C528.217 201.544 528.218 201.544 528.219 201.544C528.22 201.544 528.221 201.544 528.222 201.544C528.223 201.544 528.224 201.544 528.225 201.544C528.226 201.544 528.227 201.544 528.228 201.544C528.229 201.544 528.23 201.544 528.231 201.544C528.232 201.544 528.233 201.544 528.234 201.544C528.235 201.544 528.236 201.544 528.237 201.544C528.238 201.544 528.239 201.544 528.24 201.544C528.241 201.544 528.242 201.544 528.243 201.544C528.244 201.544 528.245 201.544 528.246 201.544C528.247 201.544 528.248 201.544 528.249 201.544C528.25 201.544 528.251 201.544 528.252 201.544C528.253 201.544 528.254 201.544 528.255 201.544C528.256 201.544 528.257 201.544 528.258 201.544C528.259 201.544 528.26 201.544 528.261 201.544C528.262 201.544 528.263 201.544 528.264 201.544C528.265 201.544 528.266 201.544 528.267 201.544C528.268 201.544 528.269 201.544 528.27 201.544C528.271 201.544 528.272 201.544 528.273 201.544C528.274 201.544 528.275 201.544 528.276 201.544C528.277 201.544 528.278 201.544 528.279 201.544C528.28 201.544 528.281 201.544 528.282 201.544C528.283 201.544 528.284 201.544 528.285 201.544C528.286 201.544 528.286 201.544 528.287 201.544C528.288 201.544 528.289 201.544 528.29 201.544C528.291 201.544 528.292 201.544 528.293 201.544C528.294 201.544 528.295 201.544 528.296 201.544C528.297 201.544 528.298 201.544 528.299 201.544C528.3 201.544 528.301 201.544 528.302 201.544C528.303 201.544 528.304 201.544 528.305 201.544C528.306 201.544 528.307 201.544 528.308 201.544C528.309 201.544 528.31 201.544 528.311 201.544C528.312 201.544 528.313 201.544 528.314 201.544C528.315 201.544 528.316 201.544 528.317 201.544C528.318 201.544 528.319 201.544 528.32 201.544C528.321 201.544 528.322 201.544 528.323 201.544C528.324 201.544 528.325 201.544 528.326 201.544C528.327 201.544 528.328 201.544 528.329 201.544C528.33 201.544 528.331 201.544 528.332 201.544C528.333 201.544 528.334 201.544 528.335 201.544C528.336 201.544 528.336 201.544 528.337 201.544C528.338 201.544 528.339 201.544 528.34 201.544C528.341 201.544 528.342 201.544 528.343 201.544C528.344 201.544 528.345 201.544 528.346 201.544C528.347 201.544 528.348 201.544 528.349 201.544C528.35 201.544 528.351 201.544 528.352 201.544C528.353 201.544 528.354 201.544 528.355 201.544C528.356 201.544 528.357 201.544 528.358 201.544C528.359 201.544 528.36 201.544 528.361 201.544C528.362 201.544 528.363 201.544 528.364 201.544C528.365 201.544 528.366 201.544 528.367 201.544C528.368 201.544 528.369 201.544 528.37 201.544C528.371 201.544 528.372 201.544 528.373 201.544C528.374 201.544 528.375 201.544 528.375 201.544C528.376 201.544 528.377 201.544 528.378 201.544C528.379 201.544 528.38 201.544 528.381 201.544C528.382 201.544 528.383 201.544 528.384 201.544C528.385 201.544 528.386 201.544 528.387 201.544C528.388 201.544 528.389 201.544 528.39 201.544C528.391 201.544 528.392 201.544 528.393 201.544C528.394 201.544 528.395 201.544 528.396 201.544C528.397 201.544 528.398 201.544 528.399 201.544C528.4 201.544 528.401 201.544 528.402 201.544C528.403 201.544 528.404 201.544 528.405 201.544C528.406 201.544 528.407 201.544 528.408 201.544C528.408 201.544 528.409 201.544 528.41 201.544C528.411 201.544 528.412 201.544 528.413 201.544C528.414 201.544 528.415 201.544 528.416 201.544C528.417 201.544 528.418 201.544 528.419 201.544C528.42 201.544 528.421 201.544 528.422 201.544C528.423 201.544 528.424 201.544 528.425 201.544C528.426 201.544 528.427 201.544 528.428 201.544C528.429 201.544 528.43 201.544 528.431 201.544C528.432 201.544 528.433 201.544 528.434 201.544C528.435 201.544 528.436 201.544 528.437 201.544C528.437 201.544 528.438 201.544 528.439 201.544C528.44 201.544 528.441 201.544 528.442 201.544C528.443 201.544 528.444 201.544 528.445 201.544C528.446 201.544 528.447 201.544 528.448 201.544C528.449 201.544 528.45 201.544 528.451 201.544C528.452 201.544 528.453 201.544 528.454 201.544C528.455 201.544 528.456 201.544 528.457 201.544C528.458 201.544 528.459 201.544 528.46 201.544C528.461 201.544 528.462 201.544 528.463 201.544C528.463 201.544 528.464 201.544 528.465 201.544C528.466 201.544 528.467 201.544 528.468 201.544C528.469 201.544 528.47 201.544 528.471 201.544C528.472 201.544 528.473 201.544 528.474 201.544C528.475 201.544 528.476 201.544 528.477 201.544C528.478 201.544 528.479 201.544 528.48 201.544C528.481 201.544 528.482 201.544 528.483 201.544C528.484 201.544 528.485 201.544 528.486 201.544C528.487 201.544 528.487 201.544 528.488 201.544C528.489 201.544 528.49 201.544 528.491 201.544C528.492 201.544 528.493 201.544 528.494 201.544C528.495 201.544 528.496 201.544 528.497 201.544C528.498 201.544 528.499 201.544 528.5 201.544C528.501 201.544 528.502 201.544 528.503 201.544C528.504 201.544 528.505 201.544 528.506 201.544C528.507 201.544 528.508 201.544 528.509 201.544C528.509 201.544 528.51 201.544 528.511 201.544C528.512 201.544 528.513 201.544 528.514 201.544C528.515 201.544 528.516 201.544 528.517 201.544C528.518 201.544 528.519 201.544 528.52 201.544C528.521 201.544 528.522 201.544 528.523 201.544C528.524 201.544 528.525 201.544 528.526 201.544C528.527 201.544 528.528 201.544 528.529 201.544C528.53 201.544 528.53 201.544 528.531 201.544C528.532 201.544 528.533 201.544 528.534 201.544C528.535 201.544 528.536 201.544 528.537 201.544C528.538 201.544 528.539 201.544 528.54 201.544C528.541 201.544 528.542 201.544 528.543 201.544C528.544 201.544 528.545 201.544 528.546 201.544C528.547 201.544 528.548 201.544 528.549 201.544C528.55 201.544 528.55 201.544 528.551 201.544C528.552 201.544 528.553 201.544 528.554 201.544C528.555 201.544 528.556 201.544 528.557 201.544C528.558 201.544 528.559 201.544 528.56 201.544C528.561 201.544 528.562 201.544 528.563 201.544C528.564 201.544 528.565 201.544 528.566 201.544C528.567 201.544 528.568 201.544 528.568 201.544C528.569 201.544 528.57 201.544 528.571 201.544C528.572 201.544 528.573 201.544 528.574 201.544C528.575 201.544 528.576 201.544 528.577 201.544C528.578 201.544 528.579 201.544 528.58 201.544C528.581 201.544 528.582 201.544 528.583 201.544C528.584 201.544 528.585 201.544 528.586 201.544C528.586 201.544 528.587 201.544 528.588 201.544C528.589 201.544 528.59 201.544 528.591 201.544C528.592 201.544 528.593 201.544 528.594 201.544C528.595 201.544 528.596 201.544 528.597 201.544C528.598 201.544 528.599 201.544 528.6 201.544C528.601 201.544 528.602 201.544 528.603 201.544C528.603 201.544 528.604 201.544 528.605 201.544C528.606 201.544 528.607 201.544 528.608 201.544C528.609 201.544 528.61 201.544 528.611 201.544C528.612 201.544 528.613 201.544 528.614 201.544C528.615 201.544 528.616 201.544 528.617 201.544C528.618 201.544 528.619 201.544 528.62 201.544C528.62 201.544 528.621 201.544 528.622 201.544C528.623 201.544 528.624 201.544 528.625 201.544C528.626 201.544 528.627 201.544 528.628 201.544C528.629 201.544 528.63 201.544 528.631 201.544C528.632 201.544 528.633 201.544 528.634 201.544C528.635 201.544 528.636 201.544 528.636 201.544C528.637 201.544 528.638 201.544 528.639 201.544C528.64 201.544 528.641 201.544 528.642 201.544C528.643 201.544 528.644 201.544 528.645 201.544C528.646 201.544 528.647 201.544 528.648 201.544C528.649 201.544 528.65 201.544 528.651 201.544C528.651 201.544 528.652 201.544 528.653 201.544C528.654 201.544 528.655 201.544 528.656 201.544C528.657 201.544 528.658 201.544 528.659 201.544C528.66 201.544 528.661 201.544 528.662 201.544C528.663 201.544 528.664 201.544 528.665 201.544C528.666 201.544 528.666 201.544 528.667 201.544C528.668 201.544 528.669 201.544 528.67 201.544C528.671 201.544 528.672 201.544 528.673 201.544C528.674 201.544 528.675 201.544 528.676 201.544C528.677 201.544 528.678 201.544 528.679 201.544C528.68 201.544 528.68 201.544 528.681 201.544C528.682 201.544 528.683 201.544 528.684 201.544C528.685 201.544 528.686 201.544 528.687 201.544C528.688 201.544 528.689 201.544 528.69 201.544C528.691 201.544 528.692 201.544 528.693 201.544C528.694 201.544 528.694 201.544 528.695 201.544C528.696 201.544 528.697 201.544 528.698 201.544C528.699 201.544 528.7 201.544 528.701 201.544V171.544C528.7 171.544 528.699 171.544 528.698 171.544C528.697 171.544 528.696 171.544 528.695 171.544C528.694 171.544 528.694 171.544 528.693 171.544C528.692 171.544 528.691 171.544 528.69 171.544C528.689 171.544 528.688 171.544 528.687 171.544C528.686 171.544 528.685 171.544 528.684 171.544C528.683 171.544 528.682 171.544 528.681 171.544C528.68 171.544 528.68 171.544 528.679 171.544C528.678 171.544 528.677 171.544 528.676 171.544C528.675 171.544 528.674 171.544 528.673 171.544C528.672 171.544 528.671 171.544 528.67 171.544C528.669 171.544 528.668 171.544 528.667 171.544C528.666 171.544 528.666 171.544 528.665 171.544C528.664 171.544 528.663 171.544 528.662 171.544C528.661 171.544 528.66 171.544 528.659 171.544C528.658 171.544 528.657 171.544 528.656 171.544C528.655 171.544 528.654 171.544 528.653 171.544C528.652 171.544 528.651 171.544 528.651 171.544C528.65 171.544 528.649 171.544 528.648 171.544C528.647 171.544 528.646 171.544 528.645 171.544C528.644 171.544 528.643 171.544 528.642 171.544C528.641 171.544 528.64 171.544 528.639 171.544C528.638 171.544 528.637 171.544 528.636 171.544C528.636 171.544 528.635 171.544 528.634 171.544C528.633 171.544 528.632 171.544 528.631 171.544C528.63 171.544 528.629 171.544 528.628 171.544C528.627 171.544 528.626 171.544 528.625 171.544C528.624 171.544 528.623 171.544 528.622 171.544C528.621 171.544 528.62 171.544 528.62 171.544C528.619 171.544 528.618 171.544 528.617 171.544C528.616 171.544 528.615 171.544 528.614 171.544C528.613 171.544 528.612 171.544 528.611 171.544C528.61 171.544 528.609 171.544 528.608 171.544C528.607 171.544 528.606 171.544 528.605 171.544C528.604 171.544 528.603 171.544 528.603 171.544C528.602 171.544 528.601 171.544 528.6 171.544C528.599 171.544 528.598 171.544 528.597 171.544C528.596 171.544 528.595 171.544 528.594 171.544C528.593 171.544 528.592 171.544 528.591 171.544C528.59 171.544 528.589 171.544 528.588 171.544C528.587 171.544 528.586 171.544 528.586 171.544C528.585 171.544 528.584 171.544 528.583 171.544C528.582 171.544 528.581 171.544 528.58 171.544C528.579 171.544 528.578 171.544 528.577 171.544C528.576 171.544 528.575 171.544 528.574 171.544C528.573 171.544 528.572 171.544 528.571 171.544C528.57 171.544 528.569 171.544 528.568 171.544C528.568 171.544 528.567 171.544 528.566 171.544C528.565 171.544 528.564 171.544 528.563 171.544C528.562 171.544 528.561 171.544 528.56 171.544C528.559 171.544 528.558 171.544 528.557 171.544C528.556 171.544 528.555 171.544 528.554 171.544C528.553 171.544 528.552 171.544 528.551 171.544C528.55 171.544 528.55 171.544 528.549 171.544C528.548 171.544 528.547 171.544 528.546 171.544C528.545 171.544 528.544 171.544 528.543 171.544C528.542 171.544 528.541 171.544 528.54 171.544C528.539 171.544 528.538 171.544 528.537 171.544C528.536 171.544 528.535 171.544 528.534 171.544C528.533 171.544 528.532 171.544 528.531 171.544C528.53 171.544 528.53 171.544 528.529 171.544C528.528 171.544 528.527 171.544 528.526 171.544C528.525 171.544 528.524 171.544 528.523 171.544C528.522 171.544 528.521 171.544 528.52 171.544C528.519 171.544 528.518 171.544 528.517 171.544C528.516 171.544 528.515 171.544 528.514 171.544C528.513 171.544 528.512 171.544 528.511 171.544C528.51 171.544 528.509 171.544 528.509 171.544C528.508 171.544 528.507 171.544 528.506 171.544C528.505 171.544 528.504 171.544 528.503 171.544C528.502 171.544 528.501 171.544 528.5 171.544C528.499 171.544 528.498 171.544 528.497 171.544C528.496 171.544 528.495 171.544 528.494 171.544C528.493 171.544 528.492 171.544 528.491 171.544C528.49 171.544 528.489 171.544 528.488 171.544C528.487 171.544 528.487 171.544 528.486 171.544C528.485 171.544 528.484 171.544 528.483 171.544C528.482 171.544 528.481 171.544 528.48 171.544C528.479 171.544 528.478 171.544 528.477 171.544C528.476 171.544 528.475 171.544 528.474 171.544C528.473 171.544 528.472 171.544 528.471 171.544C528.47 171.544 528.469 171.544 528.468 171.544C528.467 171.544 528.466 171.544 528.465 171.544C528.464 171.544 528.463 171.544 528.463 171.544C528.462 171.544 528.461 171.544 528.46 171.544C528.459 171.544 528.458 171.544 528.457 171.544C528.456 171.544 528.455 171.544 528.454 171.544C528.453 171.544 528.452 171.544 528.451 171.544C528.45 171.544 528.449 171.544 528.448 171.544C528.447 171.544 528.446 171.544 528.445 171.544C528.444 171.544 528.443 171.544 528.442 171.544C528.441 171.544 528.44 171.544 528.439 171.544C528.438 171.544 528.437 171.544 528.437 171.544C528.436 171.544 528.435 171.544 528.434 171.544C528.433 171.544 528.432 171.544 528.431 171.544C528.43 171.544 528.429 171.544 528.428 171.544C528.427 171.544 528.426 171.544 528.425 171.544C528.424 171.544 528.423 171.544 528.422 171.544C528.421 171.544 528.42 171.544 528.419 171.544C528.418 171.544 528.417 171.544 528.416 171.544C528.415 171.544 528.414 171.544 528.413 171.544C528.412 171.544 528.411 171.544 528.41 171.544C528.409 171.544 528.408 171.544 528.408 171.544C528.407 171.544 528.406 171.544 528.405 171.544C528.404 171.544 528.403 171.544 528.402 171.544C528.401 171.544 528.4 171.544 528.399 171.544C528.398 171.544 528.397 171.544 528.396 171.544C528.395 171.544 528.394 171.544 528.393 171.544C528.392 171.544 528.391 171.544 528.39 171.544C528.389 171.544 528.388 171.544 528.387 171.544C528.386 171.544 528.385 171.544 528.384 171.544C528.383 171.544 528.382 171.544 528.381 171.544C528.38 171.544 528.379 171.544 528.378 171.544C528.377 171.544 528.376 171.544 528.375 171.544C528.375 171.544 528.374 171.544 528.373 171.544C528.372 171.544 528.371 171.544 528.37 171.544C528.369 171.544 528.368 171.544 528.367 171.544C528.366 171.544 528.365 171.544 528.364 171.544C528.363 171.544 528.362 171.544 528.361 171.544C528.36 171.544 528.359 171.544 528.358 171.544C528.357 171.544 528.356 171.544 528.355 171.544C528.354 171.544 528.353 171.544 528.352 171.544C528.351 171.544 528.35 171.544 528.349 171.544C528.348 171.544 528.347 171.544 528.346 171.544C528.345 171.544 528.344 171.544 528.343 171.544C528.342 171.544 528.341 171.544 528.34 171.544C528.339 171.544 528.338 171.544 528.337 171.544C528.336 171.544 528.336 171.544 528.335 171.544C528.334 171.544 528.333 171.544 528.332 171.544C528.331 171.544 528.33 171.544 528.329 171.544C528.328 171.544 528.327 171.544 528.326 171.544C528.325 171.544 528.324 171.544 528.323 171.544C528.322 171.544 528.321 171.544 528.32 171.544C528.319 171.544 528.318 171.544 528.317 171.544C528.316 171.544 528.315 171.544 528.314 171.544C528.313 171.544 528.312 171.544 528.311 171.544C528.31 171.544 528.309 171.544 528.308 171.544C528.307 171.544 528.306 171.544 528.305 171.544C528.304 171.544 528.303 171.544 528.302 171.544C528.301 171.544 528.3 171.544 528.299 171.544C528.298 171.544 528.297 171.544 528.296 171.544C528.295 171.544 528.294 171.544 528.293 171.544C528.292 171.544 528.291 171.544 528.29 171.544C528.289 171.544 528.288 171.544 528.287 171.544C528.286 171.544 528.286 171.544 528.285 171.544C528.284 171.544 528.283 171.544 528.282 171.544C528.281 171.544 528.28 171.544 528.279 171.544C528.278 171.544 528.277 171.544 528.276 171.544C528.275 171.544 528.274 171.544 528.273 171.544C528.272 171.544 528.271 171.544 528.27 171.544C528.269 171.544 528.268 171.544 528.267 171.544C528.266 171.544 528.265 171.544 528.264 171.544C528.263 171.544 528.262 171.544 528.261 171.544C528.26 171.544 528.259 171.544 528.258 171.544C528.257 171.544 528.256 171.544 528.255 171.544C528.254 171.544 528.253 171.544 528.252 171.544C528.251 171.544 528.25 171.544 528.249 171.544C528.248 171.544 528.247 171.544 528.246 171.544C528.245 171.544 528.244 171.544 528.243 171.544C528.242 171.544 528.241 171.544 528.24 171.544C528.239 171.544 528.238 171.544 528.237 171.544C528.236 171.544 528.235 171.544 528.234 171.544C528.233 171.544 528.232 171.544 528.231 171.544C528.23 171.544 528.229 171.544 528.228 171.544C528.227 171.544 528.226 171.544 528.225 171.544C528.224 171.544 528.223 171.544 528.222 171.544C528.221 171.544 528.22 171.544 528.219 171.544C528.218 171.544 528.217 171.544 528.216 171.544C528.215 171.544 528.214 171.544 528.213 171.544C528.212 171.544 528.211 171.544 528.21 171.544C528.209 171.544 528.208 171.544 528.207 171.544C528.206 171.544 528.205 171.544 528.204 171.544C528.203 171.544 528.202 171.544 528.201 171.544C528.2 171.544 528.199 171.544 528.198 171.544C528.197 171.544 528.196 171.544 528.195 171.544C528.194 171.544 528.194 171.544 528.193 171.544C528.192 171.544 528.191 171.544 528.19 171.544C528.189 171.544 528.188 171.544 528.187 171.544C528.186 171.544 528.185 171.544 528.184 171.544C528.183 171.544 528.182 171.544 528.181 171.544C528.18 171.544 528.179 171.544 528.178 171.544C528.177 171.544 528.176 171.544 528.175 171.544C528.174 171.544 528.173 171.544 528.172 171.544C528.171 171.544 528.17 171.544 528.169 171.544C528.168 171.544 528.167 171.544 528.166 171.544C528.165 171.544 528.164 171.544 528.163 171.544C528.162 171.544 528.161 171.544 528.16 171.544C528.159 171.544 528.158 171.544 528.157 171.544C528.156 171.544 528.155 171.544 528.154 171.544C528.153 171.544 528.152 171.544 528.151 171.544C528.15 171.544 528.149 171.544 528.148 171.544C528.147 171.544 528.146 171.544 528.145 171.544C528.144 171.544 528.143 171.544 528.142 171.544C528.141 171.544 528.14 171.544 528.139 171.544C528.138 171.544 528.137 171.544 528.136 171.544C528.135 171.544 528.134 171.544 528.133 171.544C528.132 171.544 528.131 171.544 528.13 171.544C528.129 171.544 528.128 171.544 528.127 171.544C528.126 171.544 528.125 171.544 528.124 171.544C528.123 171.544 528.122 171.544 528.121 171.544C528.12 171.544 528.119 171.544 528.118 171.544C528.117 171.544 528.116 171.544 528.115 171.544C528.114 171.544 528.113 171.544 528.112 171.544C528.111 171.544 528.11 171.544 528.109 171.544C528.107 171.544 528.106 171.544 528.105 171.544C528.104 171.544 528.103 171.544 528.102 171.544C528.101 171.544 528.1 171.544 528.099 171.544C528.098 171.544 528.097 171.544 528.096 171.544C528.095 171.544 528.094 171.544 528.093 171.544C528.092 171.544 528.091 171.544 528.09 171.544C528.089 171.544 528.088 171.544 528.087 171.544C528.086 171.544 528.085 171.544 528.084 171.544C528.083 171.544 528.082 171.544 528.081 171.544C528.08 171.544 528.079 171.544 528.078 171.544C528.077 171.544 528.076 171.544 528.075 171.544C528.074 171.544 528.073 171.544 528.072 171.544C528.071 171.544 528.07 171.544 528.069 171.544C528.068 171.544 528.067 171.544 528.066 171.544C528.065 171.544 528.064 171.544 528.063 171.544C528.062 171.544 528.061 171.544 528.06 171.544C528.059 171.544 528.058 171.544 528.057 171.544C528.056 171.544 528.055 171.544 528.054 171.544C528.053 171.544 528.052 171.544 528.051 171.544C528.05 171.544 528.049 171.544 528.048 171.544C528.047 171.544 528.046 171.544 528.045 171.544C528.044 171.544 528.043 171.544 528.042 171.544C528.041 171.544 528.04 171.544 528.039 171.544C528.038 171.544 528.037 171.544 528.036 171.544C528.035 171.544 528.034 171.544 528.033 171.544C528.032 171.544 528.031 171.544 528.03 171.544C528.029 171.544 528.028 171.544 528.027 171.544C528.026 171.544 528.025 171.544 528.024 171.544C528.023 171.544 528.022 171.544 528.021 171.544C528.02 171.544 528.019 171.544 528.018 171.544C528.017 171.544 528.016 171.544 528.014 171.544C528.013 171.544 528.012 171.544 528.011 171.544C528.01 171.544 528.009 171.544 528.008 171.544C528.007 171.544 528.006 171.544 528.005 171.544C528.004 171.544 528.003 171.544 528.002 171.544C528.001 171.544 528 171.544 527.999 171.544C527.998 171.544 527.997 171.544 527.996 171.544C527.995 171.544 527.994 171.544 527.993 171.544C527.992 171.544 527.991 171.544 527.99 171.544C527.989 171.544 527.988 171.544 527.987 171.544C527.986 171.544 527.985 171.544 527.984 171.544C527.983 171.544 527.982 171.544 527.981 171.544C527.98 171.544 527.979 171.544 527.978 171.544C527.977 171.544 527.976 171.544 527.975 171.544C527.974 171.544 527.973 171.544 527.972 171.544C527.971 171.544 527.97 171.544 527.969 171.544C527.968 171.544 527.967 171.544 527.966 171.544C527.965 171.544 527.964 171.544 527.963 171.544C527.961 171.544 527.96 171.544 527.959 171.544C527.958 171.544 527.957 171.544 527.956 171.544C527.955 171.544 527.954 171.544 527.953 171.544C527.952 171.544 527.951 171.544 527.95 171.544C527.949 171.544 527.948 171.544 527.947 171.544C527.946 171.544 527.945 171.544 527.944 171.544C527.943 171.544 527.942 171.544 527.941 171.544C527.94 171.544 527.939 171.544 527.938 171.544C527.937 171.544 527.936 171.544 527.935 171.544C527.934 171.544 527.933 171.544 527.932 171.544C527.931 171.544 527.93 171.544 527.929 171.544C527.928 171.544 527.927 171.544 527.926 171.544C527.925 171.544 527.924 171.544 527.923 171.544C527.921 171.544 527.92 171.544 527.919 171.544C527.918 171.544 527.917 171.544 527.916 171.544C527.915 171.544 527.914 171.544 527.913 171.544C527.912 171.544 527.911 171.544 527.91 171.544C527.909 171.544 527.908 171.544 527.907 171.544C527.906 171.544 527.905 171.544 527.904 171.544C527.903 171.544 527.902 171.544 527.901 171.544C527.9 171.544 527.899 171.544 527.898 171.544C527.897 171.544 527.896 171.544 527.895 171.544C527.894 171.544 527.893 171.544 527.892 171.544C527.891 171.544 527.89 171.544 527.889 171.544C527.888 171.544 527.886 171.544 527.885 171.544C527.884 171.544 527.883 171.544 527.882 171.544C527.881 171.544 527.88 171.544 527.879 171.544C527.878 171.544 527.877 171.544 527.876 171.544C527.875 171.544 527.874 171.544 527.873 171.544C527.872 171.544 527.871 171.544 527.87 171.544C527.869 171.544 527.868 171.544 527.867 171.544C527.866 171.544 527.865 171.544 527.864 171.544C527.863 171.544 527.862 171.544 527.861 171.544C527.86 171.544 527.859 171.544 527.858 171.544C527.857 171.544 527.855 171.544 527.854 171.544C527.853 171.544 527.852 171.544 527.851 171.544C527.85 171.544 527.849 171.544 527.848 171.544C527.847 171.544 527.846 171.544 527.845 171.544C527.844 171.544 527.843 171.544 527.842 171.544C527.841 171.544 527.84 171.544 527.839 171.544C527.838 171.544 527.837 171.544 527.836 171.544C527.835 171.544 527.834 171.544 527.833 171.544C527.832 171.544 527.831 171.544 527.83 171.544C527.829 171.544 527.827 171.544 527.826 171.544C527.825 171.544 527.824 171.544 527.823 171.544C527.822 171.544 527.821 171.544 527.82 171.544C527.819 171.544 527.818 171.544 527.817 171.544C527.816 171.544 527.815 171.544 527.814 171.544C527.813 171.544 527.812 171.544 527.811 171.544C527.81 171.544 527.809 171.544 527.808 171.544C527.807 171.544 527.806 171.544 527.805 171.544C527.804 171.544 527.803 171.544 527.801 171.544C527.8 171.544 527.799 171.544 527.798 171.544C527.797 171.544 527.796 171.544 527.795 171.544C527.794 171.544 527.793 171.544 527.792 171.544C527.791 171.544 527.79 171.544 527.789 171.544C527.788 171.544 527.787 171.544 527.786 171.544C527.785 171.544 527.784 171.544 527.783 171.544C527.782 171.544 527.781 171.544 527.78 171.544C527.779 171.544 527.778 171.544 527.776 171.544C527.775 171.544 527.774 171.544 527.773 171.544C527.772 171.544 527.771 171.544 527.77 171.544C527.769 171.544 527.768 171.544 527.767 171.544C527.766 171.544 527.765 171.544 527.764 171.544C527.763 171.544 527.762 171.544 527.761 171.544C527.76 171.544 527.759 171.544 527.758 171.544C527.757 171.544 527.756 171.544 527.755 171.544C527.753 171.544 527.752 171.544 527.751 171.544C527.75 171.544 527.749 171.544 527.748 171.544C527.747 171.544 527.746 171.544 527.745 171.544C527.744 171.544 527.743 171.544 527.742 171.544C527.741 171.544 527.74 171.544 527.739 171.544C527.738 171.544 527.737 171.544 527.736 171.544C527.735 171.544 527.734 171.544 527.732 171.544C527.731 171.544 527.73 171.544 527.729 171.544C527.728 171.544 527.727 171.544 527.726 171.544C527.725 171.544 527.724 171.544 527.723 171.544C527.722 171.544 527.721 171.544 527.72 171.544C527.719 171.544 527.718 171.544 527.717 171.544C527.716 171.544 527.715 171.544 527.714 171.544C527.713 171.544 527.711 171.544 527.71 171.544C527.709 171.544 527.708 171.544 527.707 171.544C527.706 171.544 527.705 171.544 527.704 171.544C527.703 171.544 527.702 171.544 527.701 171.544C527.7 171.544 527.699 171.544 527.698 171.544C527.697 171.544 527.696 171.544 527.695 171.544C527.694 171.544 527.693 171.544 527.691 171.544C527.69 171.544 527.689 171.544 527.688 171.544C527.687 171.544 527.686 171.544 527.685 171.544C527.684 171.544 527.683 171.544 527.682 171.544C527.681 171.544 527.68 171.544 527.679 171.544C527.678 171.544 527.677 171.544 527.676 171.544C527.675 171.544 527.674 171.544 527.672 171.544C527.671 171.544 527.67 171.544 527.669 171.544C527.668 171.544 527.667 171.544 527.666 171.544C527.665 171.544 527.664 171.544 527.663 171.544C527.662 171.544 527.661 171.544 527.66 171.544C527.659 171.544 527.658 171.544 527.657 171.544C527.656 171.544 527.654 171.544 527.653 171.544C527.652 171.544 527.651 171.544 527.65 171.544C527.649 171.544 527.648 171.544 527.647 171.544C527.646 171.544 527.645 171.544 527.644 171.544C527.643 171.544 527.642 171.544 527.641 171.544C527.64 171.544 527.639 171.544 527.638 171.544C527.636 171.544 527.635 171.544 527.634 171.544C527.633 171.544 527.632 171.544 527.631 171.544C527.63 171.544 527.629 171.544 527.628 171.544C527.627 171.544 527.626 171.544 527.625 171.544C527.624 171.544 527.623 171.544 527.622 171.544C527.621 171.544 527.619 171.544 527.618 171.544C527.617 171.544 527.616 171.544 527.615 171.544C527.614 171.544 527.613 171.544 527.612 171.544C527.611 171.544 527.61 171.544 527.609 171.544C527.608 171.544 527.607 171.544 527.606 171.544C527.605 171.544 527.604 171.544 527.602 171.544C527.601 171.544 527.6 171.544 527.599 171.544C527.598 171.544 527.597 171.544 527.596 171.544C527.595 171.544 527.594 171.544 527.593 171.544C527.592 171.544 527.591 171.544 527.59 171.544C527.589 171.544 527.588 171.544 527.586 171.544C527.585 171.544 527.584 171.544 527.583 171.544C527.582 171.544 527.581 171.544 527.58 171.544C527.579 171.544 527.578 171.544 527.577 171.544C527.576 171.544 527.575 171.544 527.574 171.544C527.573 171.544 527.572 171.544 527.57 171.544C527.569 171.544 527.568 171.544 527.567 171.544C527.566 171.544 527.565 171.544 527.564 171.544C527.563 171.544 527.562 171.544 527.561 171.544C527.56 171.544 527.559 171.544 527.558 171.544C527.557 171.544 527.556 171.544 527.554 171.544C527.553 171.544 527.552 171.544 527.551 171.544C527.55 171.544 527.549 171.544 527.548 171.544C527.547 171.544 527.546 171.544 527.545 171.544C527.544 171.544 527.543 171.544 527.542 171.544C527.541 171.544 527.539 171.544 527.538 171.544C527.537 171.544 527.536 171.544 527.535 171.544C527.534 171.544 527.533 171.544 527.532 171.544C527.531 171.544 527.53 171.544 527.529 171.544C527.528 171.544 527.527 171.544 527.526 171.544C527.524 171.544 527.523 171.544 527.522 171.544C527.521 171.544 527.52 171.544 527.519 171.544C527.518 171.544 527.517 171.544 527.516 171.544C527.515 171.544 527.514 171.544 527.513 171.544C527.512 171.544 527.51 171.544 527.509 171.544C527.508 171.544 527.507 171.544 527.506 171.544C527.505 171.544 527.504 171.544 527.503 171.544C527.502 171.544 527.501 171.544 527.5 171.544C527.499 171.544 527.498 171.544 527.497 171.544C527.495 171.544 527.494 171.544 527.493 171.544C527.492 171.544 527.491 171.544 527.49 171.544C527.489 171.544 527.488 171.544 527.487 171.544C527.486 171.544 527.485 171.544 527.484 171.544C527.482 171.544 527.481 171.544 527.48 171.544C527.479 171.544 527.478 171.544 527.477 171.544C527.476 171.544 527.475 171.544 527.474 171.544C527.473 171.544 527.472 171.544 527.471 171.544C527.47 171.544 527.468 171.544 527.467 171.544C527.466 171.544 527.465 171.544 527.464 171.544C527.463 171.544 527.462 171.544 527.461 171.544C527.46 171.544 527.459 171.544 527.458 171.544C527.457 171.544 527.456 171.544 527.454 171.544C527.453 171.544 527.452 171.544 527.451 171.544C527.45 171.544 527.449 171.544 527.448 171.544C527.447 171.544 527.446 171.544 527.445 171.544C527.444 171.544 527.443 171.544 527.441 171.544C527.44 171.544 527.439 171.544 527.438 171.544C527.437 171.544 527.436 171.544 527.435 171.544C527.434 171.544 527.433 171.544 527.432 171.544C527.431 171.544 527.43 171.544 527.428 171.544C527.427 171.544 527.426 171.544 527.425 171.544C527.424 171.544 527.423 171.544 527.422 171.544C527.421 171.544 527.42 171.544 527.419 171.544C527.418 171.544 527.417 171.544 527.415 171.544C527.414 171.544 527.413 171.544 527.412 171.544C527.411 171.544 527.41 171.544 527.409 171.544C527.408 171.544 527.407 171.544 527.406 171.544C527.405 171.544 527.403 171.544 527.402 171.544C527.401 171.544 527.4 171.544 527.399 171.544C527.398 171.544 527.397 171.544 527.396 171.544C527.395 171.544 527.394 171.544 527.393 171.544C527.392 171.544 527.39 171.544 527.389 171.544C527.388 171.544 527.387 171.544 527.386 171.544C527.385 171.544 527.384 171.544 527.383 171.544C527.382 171.544 527.381 171.544 527.38 171.544C527.378 171.544 527.377 171.544 527.376 171.544C527.375 171.544 527.374 171.544 527.373 171.544C527.372 171.544 527.371 171.544 527.37 171.544C527.369 171.544 527.368 171.544 527.366 171.544C527.365 171.544 527.364 171.544 527.363 171.544C527.362 171.544 527.361 171.544 527.36 171.544C527.359 171.544 527.358 171.544 527.357 171.544C527.356 171.544 527.354 171.544 527.353 171.544C527.352 171.544 527.351 171.544 527.35 171.544C527.349 171.544 527.348 171.544 527.347 171.544C527.346 171.544 527.345 171.544 527.344 171.544C527.342 171.544 527.341 171.544 527.34 171.544C527.339 171.544 527.338 171.544 527.337 171.544C527.336 171.544 527.335 171.544 527.334 171.544C527.333 171.544 527.331 171.544 527.33 171.544C527.329 171.544 527.328 171.544 527.327 171.544C527.326 171.544 527.325 171.544 527.324 171.544C527.323 171.544 527.322 171.544 527.321 171.544C527.319 171.544 527.318 171.544 527.317 171.544C527.316 171.544 527.315 171.544 527.314 171.544C527.313 171.544 527.312 171.544 527.311 171.544C527.31 171.544 527.308 171.544 527.307 171.544C527.306 171.544 527.305 171.544 527.304 171.544C527.303 171.544 527.302 171.544 527.301 171.544C527.3 171.544 527.299 171.544 527.297 171.544C527.296 171.544 527.295 171.544 527.294 171.544C527.293 171.544 527.292 171.544 527.291 171.544C527.29 171.544 527.289 171.544 527.288 171.544C527.286 171.544 527.285 171.544 527.284 171.544C527.283 171.544 527.282 171.544 527.281 171.544C527.28 171.544 527.279 171.544 527.278 171.544C527.277 171.544 527.275 171.544 527.274 171.544C527.273 171.544 527.272 171.544 527.271 171.544C527.27 171.544 527.269 171.544 527.268 171.544C527.267 171.544 527.266 171.544 527.264 171.544C527.263 171.544 527.262 171.544 527.261 171.544C527.26 171.544 527.259 171.544 527.258 171.544C527.257 171.544 527.256 171.544 527.255 171.544C527.253 171.544 527.252 171.544 527.251 171.544C527.25 171.544 527.249 171.544 527.248 171.544C527.247 171.544 527.246 171.544 527.245 171.544C527.244 171.544 527.242 171.544 527.241 171.544C527.24 171.544 527.239 171.544 527.238 171.544C527.237 171.544 527.236 171.544 527.235 171.544C527.234 171.544 527.232 171.544 527.231 171.544C527.23 171.544 527.229 171.544 527.228 171.544C527.227 171.544 527.226 171.544 527.225 171.544C527.224 171.544 527.222 171.544 527.221 171.544C527.22 171.544 527.219 171.544 527.218 171.544C527.217 171.544 527.216 171.544 527.215 171.544C527.214 171.544 527.213 171.544 527.211 171.544C527.21 171.544 527.209 171.544 527.208 171.544C527.207 171.544 527.206 171.544 527.205 171.544C527.204 171.544 527.203 171.544 527.201 171.544C527.2 171.544 527.199 171.544 527.198 171.544C527.197 171.544 527.196 171.544 527.195 171.544C527.194 171.544 527.193 171.544 527.191 171.544C527.19 171.544 527.189 171.544 527.188 171.544C527.187 171.544 527.186 171.544 527.185 171.544C527.184 171.544 527.183 171.544 527.181 171.544C527.18 171.544 527.179 171.544 527.178 171.544C527.177 171.544 527.176 171.544 527.175 171.544C527.174 171.544 527.173 171.544 527.171 171.544C527.17 171.544 527.169 171.544 527.168 171.544C527.167 171.544 527.166 171.544 527.165 171.544C527.164 171.544 527.163 171.544 527.161 171.544C527.16 171.544 527.159 171.544 527.158 171.544C527.157 171.544 527.156 171.544 527.155 171.544C527.154 171.544 527.153 171.544 527.151 171.544C527.15 171.544 527.149 171.544 527.148 171.544C527.147 171.544 527.146 171.544 527.145 171.544C527.144 171.544 527.142 171.544 527.141 171.544C527.14 171.544 527.139 171.544 527.138 171.544C527.137 171.544 527.136 171.544 527.135 171.544C527.134 171.544 527.132 171.544 527.131 171.544C527.13 171.544 527.129 171.544 527.128 171.544V201.544ZM531.643 201.253C532.119 201.157 532.596 201.062 533.073 200.967L527.189 171.549C526.713 171.645 526.236 171.74 525.759 171.835L531.643 201.253ZM535.702 200.185C535.864 200.12 535.975 200.078 536.041 200.053C536.114 200.025 536.1 200.032 536.018 200.059L526.531 171.599C525.841 171.829 525.149 172.095 524.56 172.331L535.702 200.185ZM534.913 200.381C536.116 200.081 537.205 199.698 538.133 199.327L526.991 171.473C526.992 171.473 527.004 171.468 527.028 171.459C527.052 171.45 527.089 171.437 527.139 171.42C527.236 171.388 527.405 171.335 527.637 171.277L534.913 200.381ZM540.279 198.262C540.853 197.919 541.46 197.543 542.027 197.166L525.385 172.204C525.395 172.198 525.357 172.223 525.255 172.287C525.157 172.348 525.022 172.431 524.845 172.538L540.279 198.262ZM542.026 197.166C542.017 197.172 542.055 197.147 542.156 197.083C542.255 197.022 542.39 196.939 542.567 196.832L527.133 171.108C526.559 171.451 525.952 171.827 525.386 172.204L542.026 197.166ZM544.22 195.683C544.729 195.276 545.631 194.546 546.458 193.719L525.244 172.505C525.408 172.342 525.532 172.228 525.591 172.174C525.655 172.115 525.694 172.083 525.696 172.081C525.7 172.077 525.684 172.091 525.645 172.123C525.606 172.155 525.552 172.199 525.48 172.257L544.22 195.683ZM544.171 195.593C544.992 195.046 545.766 194.446 546.365 193.967L527.625 170.541C527.552 170.599 527.493 170.645 527.446 170.682C527.399 170.719 527.368 170.742 527.351 170.755C527.335 170.767 527.34 170.763 527.365 170.745C527.388 170.728 527.445 170.688 527.53 170.631L544.171 195.593ZM546.598 193.777C546.694 193.697 546.773 193.632 546.835 193.582C546.866 193.557 546.891 193.537 546.912 193.52C546.932 193.504 546.946 193.493 546.955 193.487C546.963 193.48 546.964 193.479 546.958 193.484C546.952 193.489 546.936 193.501 546.911 193.519C546.887 193.537 546.849 193.564 546.8 193.598C546.752 193.632 546.685 193.679 546.602 193.734L529.962 168.772C528.964 169.437 528.016 170.211 527.392 170.731L546.598 193.777ZM553.282 181.253V114.043H523.282V181.253H553.282ZM546.602 101.562L538.88 96.4142L522.239 121.376L529.961 126.524L546.602 101.562ZM545.56 108.895V92.45H515.56V108.895H545.56ZM530.56 107.45H585.043V77.45H530.56V107.45ZM570.043 92.45V214H600.043V92.45H570.043ZM585.043 199H545.432V229H585.043V199ZM560.04 210.595L555.607 191.576L526.391 198.386L530.824 217.405L560.04 210.595ZM611.151 205.42L598.599 213.633L598.634 213.687L598.67 213.741L611.151 205.42ZM603.572 117.618H618.572V102.618H603.572V117.618ZM593.705 117.618H578.705V132.618H593.705V117.618ZM593.705 97.741L589.217 83.4281L578.705 86.7243V97.741H593.705ZM610.579 92.45L615.066 106.763L621.581 104.72L624.32 98.4654L610.579 92.45ZM625.165 59.131V44.131H615.357L611.424 53.1156L625.165 59.131ZM650.333 59.131H665.333V44.131H650.333V59.131ZM650.333 92.45H635.333V107.45H650.333V92.45ZM673.785 92.45H688.785V77.45H673.785V92.45ZM673.785 117.618V132.618H688.785V117.618H673.785ZM649.904 117.618V102.618H634.904V117.618H649.904ZM653.193 185.972L641.958 195.911L641.958 195.911L653.193 185.972ZM668.78 188.975L673.012 203.365L673.012 203.365L668.78 188.975ZM672.784 186.973H687.784V155.319L663.285 175.364L672.784 186.973ZM672.784 206.421L683.39 217.028L687.784 212.634V206.421H672.784ZM667.207 210.711L674.765 223.668L674.962 223.552L675.157 223.431L667.207 210.711ZM655.767 214.858L651.885 200.369L651.853 200.378L651.82 200.387L655.767 214.858ZM638.178 202.003C628.204 202.003 624.998 199.15 623.631 197.099L598.67 213.741C607.599 227.134 622.411 232.003 638.178 232.003V202.003ZM623.702 197.207C621.186 193.361 618.572 184.115 618.572 166.238H588.572C588.572 185.159 591.01 202.035 598.599 213.633L623.702 197.207ZM618.572 166.238V117.618H588.572V166.238H618.572ZM603.572 102.618H593.705V132.618H603.572V102.618ZM608.705 117.618V97.741H578.705V117.618H608.705ZM598.192 112.054L615.066 106.763L606.091 78.1371L589.217 83.4281L598.192 112.054ZM624.32 98.4654L638.906 65.1464L611.424 53.1156L596.838 86.4346L624.32 98.4654ZM625.165 74.131H650.333V44.131H625.165V74.131ZM635.333 59.131V92.45H665.333V59.131H635.333ZM650.333 107.45H673.785V77.45H650.333V107.45ZM658.785 92.45V117.618H688.785V92.45H658.785ZM673.785 102.618H649.904V132.618H673.785V102.618ZM634.904 117.618V170.814H664.904V117.618H634.904ZM634.904 170.814C634.904 175.243 635.213 179.567 636.067 183.504C636.881 187.257 638.463 191.96 641.958 195.911L664.427 176.033C665.132 176.83 665.429 177.466 665.5 177.627C665.572 177.791 665.5 177.673 665.385 177.143C665.143 176.027 664.904 174.012 664.904 170.814H634.904ZM641.958 195.911C647.962 202.699 656.183 204.69 663.346 204.69V174.69C662.364 174.69 662.195 174.551 662.533 174.675C662.718 174.743 663.02 174.877 663.381 175.118C663.747 175.362 664.107 175.671 664.427 176.033L641.958 195.911ZM663.346 204.69C666.523 204.69 669.79 204.313 673.012 203.365L664.547 174.585C664.527 174.59 664.172 174.69 663.346 174.69V204.69ZM673.012 203.365C676.097 202.458 679.35 200.982 682.282 198.582L663.285 175.364C664.12 174.68 664.703 174.539 664.547 174.585L673.012 203.365ZM657.784 186.973V206.421H687.784V186.973H657.784ZM662.177 195.814C661.765 196.226 660.88 196.976 659.257 197.991L675.157 223.431C678.109 221.586 680.942 219.476 683.39 217.028L662.177 195.814ZM659.648 197.754C659.651 197.753 659.489 197.846 659.103 198.018C658.725 198.186 658.205 198.398 657.519 198.647C656.131 199.15 654.277 199.728 651.885 200.369L659.648 229.347C665.195 227.861 670.648 226.069 674.765 223.668L659.648 197.754ZM651.82 200.387C648.082 201.406 643.575 202.003 638.178 202.003V232.003C645.745 232.003 652.965 231.17 659.713 229.329L651.82 200.387Z" fill="white" mask="url(#path-1-outside-1_77_17)"/>
</g>
<defs>
<clipPath id="clip0_77_17">
<rect width="716" height="250" fill="white"/>
</clipPath>
</defs>
</svg>
