<svg width="312" height="312" viewBox="0 0 312 312" fill="none" xmlns="http://www.w3.org/2000/svg">
<path d="M136.371 34.3361L134.025 10.4511L142.096 9.65832C143.962 9.47501 145.525 9.64333 146.785 10.1633C148.044 10.6754 149.015 11.4553 149.699 12.5028C150.383 13.5504 150.794 14.7778 150.932 16.1851C151.07 17.5924 150.905 18.8685 150.437 20.0135C149.968 21.1586 149.17 22.1005 148.042 22.8394C146.912 23.5705 145.422 24.0269 143.572 24.2087L137.041 24.8502L136.784 22.2378L143.222 21.6054C144.497 21.4802 145.505 21.1927 146.246 20.7432C146.995 20.2928 147.51 19.7084 147.793 18.9898C148.083 18.2627 148.18 17.4209 148.087 16.4646C147.993 15.5083 147.732 14.69 147.304 14.0098C146.876 13.3297 146.25 12.8338 145.427 12.5222C144.602 12.2028 143.545 12.1065 142.254 12.2333L137.169 12.7328L139.264 34.052L136.371 34.3361ZM146.56 22.5021L153.492 32.6543L150.133 32.9843L143.295 22.8229L146.56 22.5021Z" fill="white"/>
<path d="M117.015 39.134L110.719 15.9746L124.696 12.1748L125.373 14.6626L114.2 17.7L116.328 25.5253L126.776 22.6847L127.453 25.1726L117.004 28.0132L119.144 35.8838L130.497 32.7972L131.173 35.285L117.015 39.134Z" fill="white"/>
<path d="M100.846 19.4072L111.251 41.0345L108.716 42.2538L88.7619 30.9427L88.5507 31.0443L96.72 48.0252L94.101 49.2851L83.6963 27.6578L86.2308 26.4385L106.248 37.7715L106.459 37.6699L98.2694 20.6468L100.846 19.4072Z" fill="white"/>
<path d="M77.0722 40.7593C76.389 40.2878 75.6902 39.9314 74.9758 39.6899C74.263 39.4375 73.5417 39.3093 72.8119 39.3054C72.0884 39.2968 71.3666 39.4195 70.6467 39.6733C69.9267 39.9272 69.2218 40.3169 68.532 40.8424C67.4009 41.7041 66.595 42.7798 66.1141 44.0694C65.6332 45.359 65.5525 46.7807 65.872 48.3346C66.1916 49.8885 66.981 51.4919 68.2404 53.145C69.4998 54.798 70.8392 55.9825 72.2587 56.6984C73.6782 57.4142 75.0828 57.7044 76.4724 57.569C77.8621 57.4335 79.1473 56.9159 80.328 56.0164C81.4218 55.1831 82.2075 54.2162 82.6851 53.1157C83.1642 52.0043 83.3102 50.8422 83.1229 49.6295C82.9371 48.4059 82.3992 47.2099 81.5091 46.0416L82.3311 45.651L76.589 50.0257L75.0266 47.9749L82.2975 42.4355L83.8599 44.4863C85.0577 46.0586 85.7637 47.6814 85.9779 49.3548C86.1983 51.0235 85.9651 52.6253 85.2782 54.1602C84.5928 55.6842 83.492 57.0238 81.9756 58.179C80.2853 59.4668 78.497 60.2006 76.6108 60.3805C74.7309 60.5556 72.8749 60.1821 71.0429 59.26C69.2171 58.3331 67.5372 56.8629 66.0032 54.8494C64.8527 53.3393 64.0202 51.8276 63.5056 50.3142C62.9926 48.7899 62.7846 47.318 62.8817 45.8985C62.9788 44.479 63.3641 43.1541 64.0377 41.924C64.7112 40.6939 65.6601 39.6125 66.8844 38.6798C67.8911 37.9128 68.9455 37.3502 70.0475 36.9918C71.151 36.6226 72.2552 36.4541 73.3602 36.4864C74.4666 36.5077 75.541 36.7254 76.5832 37.1394C77.6207 37.5472 78.5791 38.1478 79.4586 38.9412L77.0722 40.7593Z" fill="white"/>
<path d="M52.8699 51.2369L69.8749 68.173L67.8241 70.2322L50.8191 53.2961L52.8699 51.2369Z" fill="white"/>
<path d="M48.1028 65.0631C47.0792 64.4448 46.0014 64.3288 44.8694 64.715C43.7374 65.1012 42.7251 65.8677 41.8328 67.0145C41.1803 67.8531 40.745 68.6923 40.5269 69.5323C40.3136 70.3662 40.3076 71.1435 40.5089 71.8644C40.715 72.5791 41.1202 73.1716 41.7244 73.6418C42.23 74.0352 42.7582 74.2532 43.3091 74.2958C43.8587 74.3274 44.4024 74.2457 44.9403 74.0505C45.4721 73.8505 45.9782 73.6009 46.4585 73.3016C46.9328 72.9974 47.3529 72.7056 47.7188 72.4262L49.7336 70.9055C50.247 70.5129 50.8528 70.1033 51.5511 69.6766C52.2542 69.2437 53.0189 68.9033 53.8454 68.6555C54.6704 68.3966 55.5297 68.3228 56.4231 68.434C57.3166 68.5452 58.2073 68.9463 59.0952 69.6371C60.1187 70.4336 60.8348 71.4214 61.2436 72.6008C61.6572 73.7739 61.7094 75.0618 61.4 76.4643C61.0955 77.8607 60.3771 79.2864 59.2448 80.7416C58.1893 82.098 57.0565 83.1023 55.8463 83.7543C54.6408 84.4002 53.4259 84.7021 52.2015 84.66C50.9818 84.6118 49.8253 84.2217 48.7319 83.4896L50.5742 81.122C51.3374 81.6169 52.1164 81.837 52.9113 81.7824C53.7048 81.7167 54.4674 81.449 55.1993 80.9791C55.9299 80.4983 56.5878 79.8817 57.1731 79.1295C57.8544 78.254 58.3243 77.3575 58.5828 76.4401C58.8352 75.5178 58.8638 74.6541 58.6687 73.849C58.4674 73.039 58.0215 72.3654 57.331 71.828C56.7021 71.3387 56.0536 71.1162 55.3855 71.1606C54.7174 71.205 54.0369 71.4179 53.3441 71.7994C52.6513 72.1809 51.9533 72.6326 51.2502 73.1546L48.7707 74.9671C47.1938 76.1159 45.6749 76.8148 44.214 77.0639C42.7531 77.313 41.3845 76.9409 40.1082 75.9478C39.0477 75.1226 38.3459 74.1162 38.0029 72.9287C37.6585 71.7302 37.6464 70.4735 37.9667 69.1587C38.2856 67.8329 38.9153 66.5657 39.8556 65.3573C40.8056 64.1364 41.8689 63.2216 43.0455 62.6127C44.216 61.999 45.3932 61.7074 46.5772 61.7378C47.766 61.762 48.8503 62.1306 49.83 62.8434L48.1028 65.0631Z" fill="white"/>
<path d="M44.4013 103.816L23.2699 92.4376L30.1368 79.6845L32.4068 80.9067L26.9177 91.101L34.0578 94.9456L39.1913 85.4117L41.4613 86.6339L36.3278 96.1679L43.5092 100.035L49.0871 89.6753L51.3571 90.8976L44.4013 103.816Z" fill="white"/>
<path d="M38.5949 119.293L36.2961 126.333L13.4814 118.884L15.8821 111.531C16.6047 109.318 17.6798 107.574 19.1074 106.297C20.5275 105.019 22.2249 104.238 24.1996 103.954C26.1669 103.667 28.3314 103.91 30.6931 104.681C33.0696 105.457 34.9774 106.548 36.4165 107.955C37.8482 109.359 38.7602 111.021 39.1525 112.941C39.5373 114.858 39.3515 116.976 38.5949 119.293ZM34.7473 122.77L36.0859 118.671C36.7018 116.784 36.8484 115.102 36.5255 113.624C36.2027 112.146 35.4685 110.883 34.3232 109.836C33.1778 108.788 31.6768 107.961 29.8201 107.354C27.9783 106.753 26.2945 106.536 24.7687 106.704C23.2355 106.869 21.9172 107.433 20.8138 108.396C19.7031 109.356 18.8567 110.727 18.2747 112.51L16.8343 116.921L34.7473 122.77Z" fill="white"/>
<path d="M33.2821 154.996C33.2241 156.573 32.8853 157.921 32.2657 159.04C31.646 160.158 30.8213 161.008 29.7915 161.587C28.7617 162.167 27.5988 162.433 26.3028 162.385C25.3035 162.349 24.4251 162.105 23.6677 161.655C22.9027 161.197 22.2023 160.581 21.5662 159.807C20.9226 159.025 20.2832 158.13 19.648 157.122L17.199 153.561C16.779 152.865 16.3227 152.305 15.8302 151.88C15.3379 151.448 14.6819 151.216 13.8621 151.186C13.2532 151.164 12.6538 151.412 12.0641 151.929C11.4746 152.439 11.164 153.128 11.1321 153.994C11.1097 154.603 11.2461 155.148 11.5411 155.627C11.8287 156.099 12.2057 156.477 12.6722 156.76C13.1311 157.035 13.6104 157.181 14.1101 157.2C14.6722 157.22 15.2478 157.089 15.8367 156.806C16.4181 156.514 17.0181 156.142 17.6368 155.687C18.2479 155.225 18.8753 154.748 19.5188 154.256L33.3676 143.742L33.2453 147.068L21.9498 155.752C20.9039 156.558 19.9545 157.289 19.1017 157.946C18.2488 158.603 17.4129 159.119 16.5938 159.495C15.7748 159.872 14.8968 160.043 13.9599 160.008C12.8825 159.969 11.9466 159.696 11.1522 159.19C10.3502 158.676 9.73874 157.977 9.31779 157.094C8.88932 156.202 8.69661 155.171 8.73967 154C8.78388 152.798 9.05613 151.772 9.55643 150.922C10.0489 150.073 10.6863 149.428 11.4687 148.988C12.2432 148.547 13.0755 148.343 13.9655 148.376C15.1131 148.418 16.0981 148.74 16.9203 149.34C17.7425 149.941 18.4986 150.747 19.1885 151.757L22.5729 156.666C23.3296 157.773 24.0757 158.531 24.8111 158.942C25.5466 159.352 26.0782 159.563 26.4061 159.575C27.1556 159.602 27.8615 159.433 28.5239 159.066C29.1863 158.7 29.7296 158.169 30.1539 157.473C30.5782 156.777 30.8078 155.953 30.8428 155C30.8761 154.095 30.7173 153.205 30.3663 152.333C30.0075 151.459 29.474 150.662 28.7656 149.94C28.0576 149.211 27.1958 148.624 26.1801 148.18C25.1648 147.728 24.013 147.479 22.7248 147.431L22.823 144.761C24.4157 144.82 25.7089 145.051 26.7025 145.455C27.6961 145.859 28.4695 146.302 29.0224 146.783C29.5754 147.265 29.9873 147.651 30.258 147.943C30.3717 148.041 30.4856 148.131 30.5999 148.213C30.7141 148.296 30.8281 148.386 30.9417 148.484C31.7799 149.289 32.392 150.288 32.7781 151.483C33.1563 152.678 33.3243 153.849 33.2821 154.996Z" fill="white"/>
<path d="M38.0269 191.633L14.666 197.135L12.807 189.241C12.3772 187.416 12.3362 185.845 12.684 184.527C13.0241 183.211 13.6679 182.144 14.6152 181.327C15.5625 180.51 16.7243 179.94 18.1007 179.615C19.4771 179.291 20.7639 179.285 21.9611 179.597C23.1582 179.909 24.198 180.575 25.0803 181.595C25.9551 182.617 26.6056 184.033 27.0318 185.843L28.5362 192.231L25.9811 192.833L24.4982 186.536C24.2045 185.289 23.7856 184.328 23.2415 183.654C22.6956 182.972 22.0478 182.538 21.298 182.354C20.5388 182.163 19.6916 182.178 18.7562 182.399C17.8209 182.619 17.0446 182.986 16.4273 183.501C15.8101 184.015 15.4018 184.702 15.2025 185.559C14.9955 186.419 15.0407 187.479 15.338 188.742L16.5093 193.715L37.3607 188.804L38.0269 191.633ZM24.9431 183.109L34.0833 174.888L34.857 178.173L25.6953 186.303L24.9431 183.109Z" fill="white"/>
<path d="M45.3561 210.179L23.2396 219.499L17.6149 206.151L19.9907 205.15L24.4868 215.82L31.9598 212.671L27.7549 202.692L30.1307 201.691L34.3356 211.669L41.8517 208.502L37.2828 197.66L39.6586 196.659L45.3561 210.179Z" fill="white"/>
<path d="M56.2241 228.326L35.9638 241.192L31.6167 234.346C30.6074 232.756 30.0692 231.275 30.0023 229.902C29.9245 228.526 30.2154 227.286 30.875 226.182C31.5346 225.079 32.4612 224.148 33.6549 223.39C34.8487 222.632 36.0885 222.187 37.3745 222.055C38.6563 221.917 39.9078 222.168 41.1289 222.808C42.3434 223.453 43.4512 224.564 44.4521 226.14L47.568 231.047L45.3916 232.429L42.326 227.601C41.6349 226.513 40.8921 225.758 40.0974 225.337C39.3026 224.917 38.4912 224.761 37.663 224.87C36.824 224.977 35.9989 225.289 35.1877 225.804C34.3765 226.319 33.7474 226.931 33.3003 227.641C32.849 228.344 32.6535 229.144 32.7138 230.04C32.7674 230.941 33.144 231.942 33.8433 233.043L36.5823 237.356L54.6662 225.873L56.2241 228.326Z" fill="white"/>
<path d="M50.4149 240.788C52.2585 239.054 54.1649 237.888 56.1341 237.29C58.1033 236.692 59.9981 236.631 61.8185 237.107C63.6389 237.582 65.2504 238.566 66.653 240.057C68.0555 241.547 68.9387 243.216 69.3024 245.062C69.6661 246.908 69.4897 248.795 68.7731 250.724C68.0566 252.654 66.7765 254.485 64.9329 256.22C63.0893 257.954 61.1828 259.12 59.2136 259.718C57.2444 260.315 55.3496 260.377 53.5292 259.901C51.7088 259.425 50.0973 258.442 48.6948 256.951C47.2923 255.46 46.4091 253.792 46.0454 251.946C45.6817 250.1 45.8581 248.212 46.5746 246.283C47.2912 244.354 48.5713 242.522 50.4149 240.788ZM52.3421 242.837C50.8285 244.26 49.7893 245.715 49.2244 247.202C48.6542 248.682 48.5058 250.103 48.7793 251.466C49.0474 252.822 49.6793 254.03 50.675 255.088C51.6707 256.147 52.8401 256.854 54.1834 257.21C55.5212 257.56 56.949 257.499 58.4668 257.026C59.9791 256.547 61.4921 255.595 63.0057 254.171C64.5193 252.747 65.5612 251.295 66.1314 249.815C66.6963 248.329 66.8446 246.907 66.5765 245.551C66.3031 244.188 65.6685 242.978 64.6728 241.919C63.6771 240.861 62.5103 240.157 61.1724 239.806C59.8292 239.45 58.4014 239.512 56.889 239.991C55.3713 240.464 53.8556 241.413 52.3421 242.837Z" fill="white"/>
<path d="M88.0076 258.697L73.7406 277.996L71.4036 276.268L84.138 259.042L75.167 252.411L76.6996 250.337L88.0076 258.697Z" fill="white"/>
<path d="M105.434 268.341L94.3624 289.635L81.5114 282.953L82.7007 280.666L92.9732 286.007L96.7142 278.812L87.1071 273.817L88.2965 271.529L97.9036 276.524L101.666 269.288L91.2273 263.86L92.4166 261.573L105.434 268.341Z" fill="white"/>
<path d="M118.511 298.325L117.823 276.913L117.555 276.828L104.659 293.934L101.755 293.014L117.407 272.798L120.266 273.705L121.416 299.245L118.511 298.325Z" fill="white"/>
<path d="M146.417 278.824L143.201 302.607L128.847 300.666L129.193 298.111L140.666 299.663L141.753 291.627L131.022 290.176L131.368 287.621L142.098 289.072L143.191 280.989L131.532 279.412L131.877 276.858L146.417 278.824Z" fill="white"/>
<path d="M162.947 278.813L170.346 278.488L171.4 302.465L163.673 302.805C161.347 302.907 159.336 302.514 157.639 301.627C155.943 300.748 154.614 299.434 153.653 297.685C152.693 295.944 152.159 293.833 152.05 291.351C151.94 288.853 152.29 286.684 153.101 284.841C153.911 283.007 155.146 281.569 156.805 280.526C158.465 279.491 160.512 278.92 162.947 278.813ZM167.556 281.191L163.248 281.381C161.265 281.468 159.639 281.923 158.369 282.745C157.099 283.567 156.175 284.698 155.598 286.139C155.02 287.58 154.774 289.276 154.859 291.227C154.944 293.163 155.334 294.816 156.027 296.185C156.721 297.562 157.713 298.597 159.003 299.292C160.293 299.993 161.874 300.303 163.747 300.221L168.383 300.017L167.556 281.191Z" fill="white"/>
<path d="M200.459 270.951L207.677 293.84L199.675 296.363C198.08 296.866 196.678 297.005 195.469 296.78C194.262 296.563 193.259 296.072 192.461 295.308C191.665 294.552 191.091 293.614 190.739 292.497C190.429 291.513 190.348 290.646 190.496 289.895C190.636 289.146 190.931 288.496 191.38 287.945C191.821 287.396 192.342 286.929 192.941 286.543L192.87 286.32C192.156 286.496 191.374 286.472 190.525 286.248C189.677 286.024 188.882 285.57 188.142 284.886C187.402 284.202 186.842 283.257 186.461 282.05C186.099 280.902 186.035 279.788 186.267 278.707C186.5 277.626 187.094 276.64 188.05 275.749C189.006 274.858 190.385 274.128 192.188 273.559L200.459 270.951ZM198.462 274.284L192.964 276.018C191.153 276.589 189.978 277.344 189.439 278.284C188.895 279.234 188.782 280.212 189.099 281.218C189.343 281.993 189.766 282.646 190.368 283.177C190.972 283.715 191.701 284.067 192.556 284.232C193.413 284.404 194.341 284.332 195.339 284.017L200.972 282.241L198.462 274.284ZM201.733 284.655L196.592 286.276C195.758 286.54 195.057 286.941 194.49 287.48C193.915 288.022 193.524 288.653 193.317 289.374C193.103 290.096 193.123 290.86 193.376 291.665C193.694 292.671 194.313 293.413 195.234 293.893C196.158 294.38 197.379 294.384 198.899 293.904L204.13 292.255L201.733 284.655Z" fill="white"/>
<path d="M218.396 262.227L229.362 283.575L216.478 290.194L215.3 287.901L225.599 282.61L221.893 275.397L212.262 280.345L211.084 278.051L220.715 273.104L216.988 265.849L206.523 271.225L205.345 268.932L218.396 262.227Z" fill="white"/>
<path d="M240.245 246.012L260.5 260.462L258.212 262.329L241.97 250.352L241.788 250.5L250.184 268.876L247.641 270.95L231.327 259.033L231.145 259.181L239.613 277.498L237.325 279.365L227.241 256.619L229.566 254.723L245.759 266.195L245.904 266.076L237.92 247.908L240.245 246.012Z" fill="white"/>
<path d="M268.124 207.417L289.123 219.038L287.716 221.581L278.365 216.406L272.169 227.602L281.52 232.777L280.112 235.32L259.114 223.699L260.521 221.156L269.913 226.354L276.109 215.157L266.717 209.96L268.124 207.417Z" fill="white"/>
<path d="M286.965 204.562C287.795 204.553 288.571 204.441 289.294 204.226C290.022 204.02 290.685 203.709 291.283 203.291C291.879 202.88 292.397 202.364 292.839 201.741C293.28 201.118 293.631 200.393 293.891 199.566C294.317 198.209 294.355 196.866 294.003 195.535C293.652 194.204 292.897 192.997 291.74 191.912C290.582 190.827 289.012 189.973 287.029 189.35C285.047 188.727 283.269 188.533 281.697 188.767C280.124 189.002 278.81 189.576 277.753 190.488C276.697 191.401 275.946 192.565 275.501 193.981C275.088 195.293 275.005 196.536 275.25 197.71C275.5 198.895 276.051 199.928 276.904 200.81C277.762 201.702 278.892 202.369 280.293 202.809L279.847 203.602L282.011 196.716L284.471 197.489L281.73 206.209L279.27 205.436C277.385 204.843 275.872 203.925 274.731 202.682C273.588 201.447 272.854 200.004 272.529 198.354C272.209 196.714 272.335 194.985 272.907 193.166C273.544 191.139 274.581 189.507 276.018 188.272C277.452 187.044 279.183 186.278 281.212 185.974C283.237 185.677 285.458 185.908 287.873 186.667C289.684 187.237 291.236 187.991 292.53 188.93C293.828 189.878 294.848 190.96 295.588 192.176C296.327 193.391 296.777 194.695 296.937 196.089C297.097 197.482 296.946 198.913 296.485 200.381C296.105 201.588 295.569 202.656 294.876 203.585C294.188 204.523 293.383 205.298 292.462 205.909C291.546 206.531 290.543 206.973 289.453 207.236C288.37 207.502 287.241 207.565 286.065 207.424L286.965 204.562Z" fill="white"/>
<path d="M301.269 180.423L277.394 177.981L277.68 175.183L297.756 164.09L297.78 163.857L279.034 161.939L279.33 159.048L303.205 161.49L302.919 164.288L282.791 175.423L282.767 175.656L301.56 177.578L301.269 180.423Z" fill="white"/>
<path d="M302.958 152.188L278.973 153.048L278.869 150.143L302.854 149.284L302.958 152.188Z" fill="white"/>
<path d="M296.112 139.265C297.262 138.939 298.083 138.231 298.574 137.14C299.065 136.05 299.196 134.787 298.967 133.352C298.8 132.302 298.484 131.411 298.019 130.678C297.556 129.953 296.992 129.418 296.328 129.073C295.665 128.735 294.956 128.627 294.199 128.747C293.567 128.848 293.047 129.085 292.64 129.458C292.241 129.838 291.93 130.291 291.705 130.818C291.488 131.343 291.325 131.883 291.215 132.438C291.114 132.992 291.04 133.499 290.994 133.957L290.73 136.467C290.666 137.11 290.552 137.832 290.387 138.634C290.223 139.443 289.949 140.234 289.566 141.007C289.192 141.787 288.659 142.465 287.968 143.042C287.276 143.619 286.375 143.996 285.264 144.173C283.983 144.376 282.773 144.225 281.632 143.719C280.492 143.22 279.516 142.378 278.702 141.195C277.89 140.019 277.339 138.52 277.049 136.7C276.779 135.002 276.819 133.489 277.169 132.159C277.52 130.838 278.129 129.744 278.996 128.878C279.864 128.02 280.938 127.441 282.22 127.142L282.692 130.105C281.809 130.325 281.116 130.744 280.613 131.362C280.12 131.986 279.794 132.726 279.638 133.582C279.49 134.444 279.492 135.345 279.641 136.287C279.816 137.382 280.15 138.338 280.644 139.153C281.145 139.967 281.757 140.578 282.478 140.985C283.207 141.391 284.004 141.525 284.868 141.388C285.655 141.262 286.26 140.94 286.684 140.422C287.108 139.904 287.417 139.261 287.611 138.494C287.806 137.728 287.952 136.909 288.051 136.039L288.42 132.99C288.657 131.054 289.184 129.467 289.999 128.229C290.815 126.992 292.021 126.246 293.618 125.992C294.945 125.781 296.16 125.955 297.262 126.515C298.372 127.082 299.299 127.931 300.041 129.063C300.791 130.201 301.287 131.527 301.528 133.039C301.771 134.566 301.714 135.968 301.355 137.243C301.004 138.517 300.413 139.577 299.583 140.421C298.753 141.273 297.744 141.813 296.554 142.042L296.112 139.265Z" fill="white"/>
<path d="M265.991 100.428L288.037 90.9418L291.242 98.3908C291.986 100.12 292.283 101.668 292.131 103.035C291.989 104.406 291.505 105.584 290.679 106.569C289.852 107.554 288.79 108.325 287.491 108.884C286.192 109.443 284.897 109.686 283.607 109.612C282.319 109.545 281.123 109.098 280.019 108.272C278.922 107.443 278.005 106.171 277.267 104.456L274.97 99.1163L277.338 98.0973L279.598 103.35C280.108 104.534 280.721 105.397 281.439 105.939C282.157 106.481 282.934 106.763 283.769 106.786C284.614 106.814 285.478 106.638 286.361 106.258C287.243 105.878 287.962 105.373 288.516 104.744C289.073 104.121 289.393 103.363 289.476 102.468C289.566 101.57 289.353 100.522 288.837 99.3237L286.817 94.6304L267.14 103.098L265.991 100.428Z" fill="white"/>
<path d="M255.558 83.4353L275.721 70.4174L283.577 82.5859L281.411 83.9843L275.131 74.2574L268.319 78.656L274.192 87.7529L272.026 89.1513L266.153 80.0544L259.3 84.4785L265.682 94.3629L263.516 95.7613L255.558 83.4353Z" fill="white"/>
<path d="M242.556 68.3332L260.356 52.2348L270.072 62.9774L268.16 64.7068L260.394 56.1196L254.379 61.5591L261.642 69.59L259.73 71.3193L252.467 63.2884L246.418 68.7593L254.31 77.4856L252.398 79.2149L242.556 68.3332Z" fill="white"/>
<path d="M229.919 57.6772L224.056 53.1526L238.718 34.1521L244.841 38.8772C246.684 40.2995 247.968 41.8969 248.692 43.6695C249.421 45.436 249.588 47.297 249.194 49.2527C248.805 51.2023 247.852 53.1605 246.334 55.1273C244.806 57.1065 243.139 58.5385 241.331 59.4231C239.528 60.3016 237.657 60.604 235.717 60.3305C233.781 60.0508 231.849 59.1664 229.919 57.6772ZM227.932 52.887L231.346 55.5216C232.917 56.7339 234.452 57.4355 235.953 57.6265C237.454 57.8174 238.89 57.5488 240.261 56.8207C241.632 56.0926 242.914 54.9554 244.107 53.4091C245.291 51.8752 246.059 50.3614 246.413 48.8677C246.771 47.3677 246.681 45.9367 246.143 44.5745C245.611 43.2061 244.602 41.9492 243.118 40.8037L239.444 37.9686L227.932 52.887Z" fill="white"/>
<path d="M229.515 28.3479L218.906 49.8758L216.383 48.6326L212.982 25.9488L212.772 25.8452L204.442 42.7479L201.835 41.4632L212.444 19.9353L214.967 21.1786L218.39 43.9252L218.6 44.0288L226.95 27.0839L229.515 28.3479Z" fill="white"/>
<path d="M181.119 35.3731L178.178 34.5772L192.954 13.7127L195.85 14.4964L198.086 39.9652L195.145 39.1692L193.5 17.7941L193.319 17.7451L181.119 35.3731ZM184.654 26.6176L196.509 29.8259L195.835 32.3145L183.98 29.1062L184.654 26.6176Z" fill="white"/>
<path d="M173.65 16.0006C173.612 14.8054 173.123 13.8378 172.184 13.0977C171.244 12.3577 170.05 11.925 168.603 11.7996C167.544 11.708 166.603 11.799 165.779 12.0727C164.964 12.3471 164.308 12.7648 163.812 13.3257C163.325 13.8873 163.048 14.5495 162.982 15.3122C162.926 15.9505 163.031 16.5123 163.295 16.9979C163.567 17.4762 163.931 17.8881 164.387 18.2334C164.844 18.571 165.329 18.86 165.841 19.1004C166.355 19.333 166.828 19.5269 167.261 19.6821L169.633 20.5461C170.242 20.7635 170.915 21.0492 171.653 21.4032C172.398 21.7579 173.1 22.2146 173.757 22.7734C174.423 23.3251 174.952 24.0061 175.345 24.8164C175.737 25.6267 175.885 26.5923 175.788 27.7131C175.676 29.0051 175.236 30.1433 174.469 31.1277C173.709 32.1127 172.657 32.8567 171.312 33.3597C169.974 33.8634 168.387 34.0358 166.55 33.8767C164.838 33.7285 163.379 33.3238 162.174 32.6627C160.976 32.0022 160.062 31.1468 159.432 30.0963C158.809 29.0465 158.507 27.8637 158.527 26.548L161.516 26.8068C161.516 27.7164 161.755 28.4899 162.233 29.1272C162.719 29.7575 163.359 30.252 164.151 30.6107C164.952 30.9624 165.827 31.1793 166.776 31.2615C167.882 31.3572 168.89 31.2641 169.8 30.9822C170.711 30.6925 171.452 30.2469 172.021 29.6454C172.592 29.0361 172.914 28.2955 172.99 27.4238C173.059 26.6299 172.893 25.9647 172.492 25.4281C172.092 24.8916 171.543 24.4363 170.846 24.0623C170.149 23.6883 169.391 23.3481 168.57 23.0419L165.701 21.9465C163.879 21.2477 162.467 20.353 161.463 19.2624C160.46 18.1718 160.028 16.8209 160.168 15.2097C160.283 13.871 160.747 12.7348 161.557 11.8012C162.375 10.8605 163.423 10.1671 164.701 9.72095C165.987 9.26769 167.393 9.1071 168.918 9.23919C170.459 9.37262 171.805 9.76753 172.956 10.4239C174.108 11.0725 174.993 11.902 175.611 12.9122C176.237 13.9231 176.517 15.0334 176.452 16.2432L173.65 16.0006Z" fill="white"/>
</svg>
