<svg width="1179" height="1077" viewBox="0 0 1179 1077" fill="none" xmlns="http://www.w3.org/2000/svg">
<path d="M364.805 433.066V283.832H408.226V433.066H364.805ZM466.095 433.066H425.603V295.801L419.363 283.832H466.222L489.651 332.218L512.062 380.478L505.823 323.814V283.832H546.442V433.066H507.605L477.3 374.111L458.582 337.184L466.095 386.08V433.066ZM654.546 419.569C643.765 430.35 630.947 435.74 616.091 435.74C605.565 435.74 596.44 433.915 588.715 430.265C581.075 426.615 575.005 421.352 570.506 414.476C566.007 407.6 562.696 399.748 560.574 390.919C558.537 382.091 557.518 372.031 557.518 360.741C557.518 352.337 557.942 344.782 558.791 338.076C559.725 331.37 561.211 324.96 563.248 318.848C565.285 312.736 568.087 307.473 571.652 303.059C575.217 298.56 579.589 294.655 584.767 291.344C589.946 288.034 596.227 285.572 603.613 283.959C610.998 282.261 619.402 281.412 628.825 281.412C633.069 281.412 637.101 281.667 640.921 282.176C644.826 282.686 648.137 283.322 650.853 284.086C653.57 284.766 656.116 285.657 658.493 286.76C660.955 287.779 662.865 288.713 664.223 289.562C665.666 290.326 666.982 291.175 668.171 292.108C669.359 293.042 670.081 293.679 670.335 294.018C670.675 294.358 670.93 294.613 671.099 294.782L669.189 324.069H646.015L638.757 307.134C636.889 306.115 633.876 305.606 629.716 305.606C626.32 305.606 623.519 305.903 621.312 306.497C619.105 307.091 616.898 308.365 614.691 310.317C612.568 312.185 610.871 314.944 609.597 318.594C608.409 322.159 607.433 327.04 606.669 333.237C605.905 339.349 605.523 346.819 605.523 355.648C605.523 374.069 606.499 387.736 608.451 396.649C610.489 405.562 614.521 410.019 620.548 410.019C623.519 410.019 626.023 409.764 628.061 409.255C630.098 408.661 632.008 407.642 633.791 406.199C635.573 404.671 636.889 402.464 637.738 399.578C638.587 396.607 639.011 392.829 639.011 388.245V375.257L622.203 371.437V345.461H678.867L678.739 433.066H656.074L654.546 419.569ZM733.732 433.066H691.585V283.832H733.732V342.914H766.457V283.832H808.604V433.066H766.457V372.201H733.732V433.066Z" fill="#3E5B56"/>
<path d="M425.698 611.066L419.263 584.325H378.651L373.217 611.066H331.175L374.79 455.053L371.358 443.47H430.417L478.179 611.066H425.698ZM397.098 492.662L384.514 555.153H412.256L397.098 492.662ZM529.293 611.066H483.819V456.912L476.812 443.47H529.436L555.748 497.81L580.916 552.007L573.909 488.372V443.47H619.526V611.066H575.911L541.877 544.857L520.856 503.387L529.293 558.299V611.066ZM695.314 587.614C702.559 587.614 708.089 583.134 711.902 574.172C715.811 565.211 717.765 550.434 717.765 529.842V515.399C717.765 500.337 715.954 488.706 712.331 480.507C708.708 472.309 703.56 468.209 696.887 468.209H686.162V587.614H695.314ZM699.747 612.067C696.315 612.067 690.976 611.877 683.731 611.495C676.581 611.209 669.193 611.066 661.566 611.066H638.829V443.47H661.566C667.953 443.375 674.913 443.137 682.444 442.755C689.975 442.374 695.886 442.183 700.176 442.183C724.486 442.183 741.884 449 752.371 462.632C762.953 476.265 768.244 496.142 768.244 522.263C768.244 531.129 767.624 539.566 766.385 547.574C765.241 555.582 763.048 563.638 759.807 571.741C756.566 579.749 752.466 586.661 747.509 592.476C742.552 598.292 735.974 603.011 727.775 606.633C719.576 610.256 710.234 612.067 699.747 612.067ZM883.076 611.066H781.689V443.47H880.931L878.071 477.218L829.022 475.788V508.106H867.632V541.568L829.022 538.708V576.746L883.076 575.316V611.066ZM997.448 611.066H896.061V443.47H995.303L992.443 477.218L943.394 475.788V508.106H982.004V541.568L943.394 538.708V576.746L997.448 575.316V611.066ZM1057.77 611.066H1010.43V443.47H1029.31C1034.36 443.47 1041.99 443.28 1052.19 442.898C1062.39 442.422 1070.78 442.183 1077.36 442.183C1095.85 442.183 1109.87 447.093 1119.4 456.912C1128.93 466.732 1133.7 481.461 1133.7 501.099C1133.7 512.921 1132.13 523.693 1128.98 533.417C1125.93 543.046 1121.78 550.959 1116.54 557.155C1111.3 563.352 1105.34 568.119 1098.66 571.455C1091.99 574.792 1084.94 576.46 1077.5 576.46C1076.55 576.46 1075.55 576.46 1074.5 576.46C1073.54 576.46 1072.64 576.46 1071.78 576.46C1071.02 576.365 1070.06 576.317 1068.92 576.317C1067.87 576.222 1067.01 576.174 1066.35 576.174C1065.77 576.079 1064.92 576.031 1063.77 576.031C1062.72 575.936 1062.01 575.888 1061.63 575.888C1061.25 575.888 1060.53 575.841 1059.48 575.745C1058.43 575.65 1057.86 575.602 1057.77 575.602V611.066ZM1086.8 494.807C1086.8 487.753 1084.89 482.033 1081.08 477.647C1077.26 473.262 1071.78 471.069 1064.63 471.069H1057.77V545.429H1063.06C1070.59 545.429 1076.4 542.903 1080.5 537.85C1084.7 532.798 1086.8 525.505 1086.8 515.971V494.807Z" fill="#3E5B56"/>
<mask id="path-3-outside-1_53_9" maskUnits="userSpaceOnUse" x="59.0603" y="227.479" width="320.525" height="454.226" fill="black">
<rect fill="white" x="59.0603" y="227.479" width="320.525" height="454.226"/>
<path d="M193.544 663.342C175.75 661.117 159.314 657.419 144.235 652.247C129.359 647.336 117.039 641.688 107.276 635.304C97.5127 628.919 89.5693 622.997 83.4457 617.538C77.5531 612.107 72.7005 606.806 68.8878 601.635L88.0868 518.487C95.9721 532.381 107.295 545.063 122.055 556.532C136.844 567.769 153.483 574.544 171.97 576.856C190.457 579.167 203.99 578.865 212.57 575.948C221.38 573.059 226.435 566.416 227.736 556.017C229.123 544.925 225.57 534.857 217.078 525.816C208.817 516.803 193.941 505.32 172.451 491.367C164.652 486.167 158.066 481.588 152.693 477.63C147.349 473.441 140.301 466.927 131.549 458.087C123.057 449.046 116.327 439.989 111.359 430.919C106.42 421.617 102.463 410.091 99.4885 396.341C96.5427 382.36 96.0235 367.744 97.9308 352.492C108.247 269.993 159.97 234.567 253.099 246.212C267.889 248.062 281.552 251.413 294.088 256.267C306.884 260.918 316.749 265.555 323.681 270.177C330.614 274.799 336.766 280.028 342.139 285.863C347.771 291.496 351.267 295.454 352.624 297.736C354.011 299.787 354.978 301.434 355.527 302.676L329.829 367.409C322.146 355.652 311.805 346.379 298.807 339.59C286.068 332.599 273.575 328.337 261.327 326.806C231.748 323.107 215.802 330.501 213.491 348.988C212.884 353.841 213.259 358.347 214.617 362.507C215.974 366.666 218.53 370.624 222.285 374.379C226.04 378.135 229.506 381.385 232.684 384.129C236.092 386.902 240.699 390.412 246.505 394.659C252.571 398.703 257.092 401.968 260.067 404.452C292.014 422.999 314.617 443.076 327.875 464.683C341.364 486.32 346.345 511.234 342.82 539.427C337.098 585.183 321.411 618.661 295.759 639.863C270.367 660.862 236.295 668.688 193.544 663.342Z"/>
</mask>
<path d="M193.544 663.342C175.75 661.117 159.314 657.419 144.235 652.247C129.359 647.336 117.039 641.688 107.276 635.304C97.5127 628.919 89.5693 622.997 83.4457 617.538C77.5531 612.107 72.7005 606.806 68.8878 601.635L88.0868 518.487C95.9721 532.381 107.295 545.063 122.055 556.532C136.844 567.769 153.483 574.544 171.97 576.856C190.457 579.167 203.99 578.865 212.57 575.948C221.38 573.059 226.435 566.416 227.736 556.017C229.123 544.925 225.57 534.857 217.078 525.816C208.817 516.803 193.941 505.32 172.451 491.367C164.652 486.167 158.066 481.588 152.693 477.63C147.349 473.441 140.301 466.927 131.549 458.087C123.057 449.046 116.327 439.989 111.359 430.919C106.42 421.617 102.463 410.091 99.4885 396.341C96.5427 382.36 96.0235 367.744 97.9308 352.492C108.247 269.993 159.97 234.567 253.099 246.212C267.889 248.062 281.552 251.413 294.088 256.267C306.884 260.918 316.749 265.555 323.681 270.177C330.614 274.799 336.766 280.028 342.139 285.863C347.771 291.496 351.267 295.454 352.624 297.736C354.011 299.787 354.978 301.434 355.527 302.676L329.829 367.409C322.146 355.652 311.805 346.379 298.807 339.59C286.068 332.599 273.575 328.337 261.327 326.806C231.748 323.107 215.802 330.501 213.491 348.988C212.884 353.841 213.259 358.347 214.617 362.507C215.974 366.666 218.53 370.624 222.285 374.379C226.04 378.135 229.506 381.385 232.684 384.129C236.092 386.902 240.699 390.412 246.505 394.659C252.571 398.703 257.092 401.968 260.067 404.452C292.014 422.999 314.617 443.076 327.875 464.683C341.364 486.32 346.345 511.234 342.82 539.427C337.098 585.183 321.411 618.661 295.759 639.863C270.367 660.862 236.295 668.688 193.544 663.342Z" fill="#3E5B56"/>
<path d="M144.235 652.247L144.56 651.301L144.549 651.298L144.235 652.247ZM107.276 635.304L107.823 634.467L107.823 634.467L107.276 635.304ZM83.4457 617.538L82.768 618.273L82.774 618.278L82.7802 618.284L83.4457 617.538ZM68.8878 601.635L67.9134 601.41L67.8099 601.858L68.0829 602.228L68.8878 601.635ZM88.0868 518.487L88.9565 517.993L87.6898 515.761L87.1124 518.262L88.0868 518.487ZM122.055 556.532L121.442 557.321L121.45 557.328L122.055 556.532ZM212.57 575.948L212.258 574.997L212.248 575.001L212.57 575.948ZM217.078 525.816L216.341 526.491L216.349 526.5L217.078 525.816ZM172.451 491.367L171.896 492.199L171.906 492.205L172.451 491.367ZM152.693 477.63L152.076 478.417L152.088 478.426L152.1 478.435L152.693 477.63ZM131.549 458.087L130.82 458.772L130.829 458.782L130.839 458.791L131.549 458.087ZM111.359 430.919L110.476 431.388L110.482 431.399L111.359 430.919ZM99.4885 396.341L98.5099 396.548L98.5111 396.553L99.4885 396.341ZM294.088 256.267L293.727 257.199L293.737 257.203L293.746 257.207L294.088 256.267ZM342.139 285.863L341.403 286.541L341.417 286.556L341.432 286.57L342.139 285.863ZM352.624 297.736L351.765 298.247L351.779 298.272L351.796 298.296L352.624 297.736ZM355.527 302.676L356.456 303.045L356.611 302.655L356.442 302.272L355.527 302.676ZM329.829 367.409L328.992 367.956L330.047 369.57L330.759 367.778L329.829 367.409ZM298.807 339.59L298.326 340.466L298.335 340.471L298.344 340.476L298.807 339.59ZM214.617 362.507L215.567 362.197L215.567 362.197L214.617 362.507ZM222.285 374.379L222.992 373.672L222.992 373.672L222.285 374.379ZM232.684 384.129L232.03 384.886L232.041 384.895L232.053 384.905L232.684 384.129ZM246.505 394.659L245.915 395.466L245.933 395.479L245.951 395.491L246.505 394.659ZM260.067 404.452L259.426 405.22L259.491 405.274L259.565 405.317L260.067 404.452ZM327.875 464.683L327.022 465.206L327.026 465.212L327.875 464.683ZM295.759 639.863L295.122 639.092L295.122 639.092L295.759 639.863ZM193.668 662.35C175.934 660.132 159.566 656.448 144.56 651.302L143.911 653.193C159.062 658.39 175.566 662.102 193.42 664.334L193.668 662.35ZM144.549 651.298C129.729 646.405 117.494 640.791 107.823 634.467L106.729 636.141C116.585 642.586 128.989 648.267 143.922 653.197L144.549 651.298ZM107.823 634.467C98.0858 628.099 90.1858 622.207 84.1112 616.791L82.7802 618.284C88.9527 623.787 96.9397 629.74 106.729 636.141L107.823 634.467ZM84.1234 616.802C78.2667 611.404 73.4597 606.15 69.6926 601.041L68.0829 602.228C71.9413 607.461 76.8396 612.809 82.768 618.273L84.1234 616.802ZM69.8621 601.86L89.0612 518.712L87.1124 518.262L67.9134 601.41L69.8621 601.86ZM87.2171 518.98C95.1775 533.007 106.595 545.785 121.442 557.321L122.669 555.742C107.995 544.341 96.7667 531.755 88.9565 517.993L87.2171 518.98ZM121.45 557.328C136.38 568.672 153.184 575.514 171.846 577.848L172.094 575.863C153.781 573.573 137.309 566.866 122.66 555.735L121.45 557.328ZM171.846 577.848C190.357 580.163 204.084 579.889 212.891 576.894L212.248 575.001C203.896 577.84 190.557 578.172 172.094 575.863L171.846 577.848ZM212.881 576.898C217.457 575.398 221.101 572.905 223.765 569.404C226.423 565.911 228.062 561.471 228.728 556.141L226.744 555.893C226.11 560.961 224.57 565.043 222.173 568.193C219.782 571.336 216.493 573.609 212.258 574.997L212.881 576.898ZM228.728 556.141C230.156 544.719 226.478 534.363 217.807 525.131L216.349 526.5C224.663 535.352 228.089 545.131 226.744 555.893L228.728 556.141ZM217.815 525.14C209.464 516.028 194.497 504.488 172.995 490.528L171.906 492.205C193.386 506.151 208.171 517.577 216.341 526.491L217.815 525.14ZM173.005 490.534C165.215 485.34 158.642 480.771 153.286 476.825L152.1 478.435C157.489 482.405 164.089 486.993 171.896 492.199L173.005 490.534ZM153.31 476.843C148.016 472.693 141.002 466.214 132.26 457.384L130.839 458.791C139.6 467.64 146.683 474.19 152.076 478.417L153.31 476.843ZM132.278 457.403C123.833 448.411 117.156 439.422 112.236 430.439L110.482 431.399C115.498 440.557 122.281 449.681 130.82 458.772L132.278 457.403ZM112.242 430.45C107.358 421.251 103.427 409.818 100.466 396.13L98.5111 396.553C101.499 410.365 105.482 421.983 110.476 431.388L112.242 430.45ZM100.467 396.135C97.5458 382.271 97.0285 367.766 98.923 352.616L96.9385 352.368C95.0185 367.721 95.5397 382.45 98.5099 396.548L100.467 396.135ZM98.923 352.616C104.058 311.553 119.471 282.376 145.025 264.873C170.605 247.352 206.536 241.397 252.975 247.205L253.223 245.22C206.533 239.382 170.038 245.317 143.895 263.223C117.727 281.146 102.12 310.932 96.9385 352.368L98.923 352.616ZM252.975 247.205C267.692 249.045 281.275 252.378 293.727 257.199L294.449 255.334C281.829 250.448 268.085 247.079 253.223 245.22L252.975 247.205ZM293.746 257.207C306.509 261.846 316.289 266.45 323.127 271.009L324.236 269.345C317.209 264.66 307.26 259.991 294.43 255.327L293.746 257.207ZM323.127 271.009C329.996 275.589 336.087 280.767 341.403 286.541L342.875 285.186C337.445 279.289 331.231 274.009 324.236 269.345L323.127 271.009ZM341.432 286.57C347.08 292.219 350.482 296.091 351.765 298.247L353.483 297.225C352.051 294.817 348.463 290.774 342.846 285.156L341.432 286.57ZM351.796 298.296C353.171 300.331 354.1 301.919 354.612 303.08L356.442 302.272C355.857 300.948 354.85 299.243 353.453 297.176L351.796 298.296ZM354.597 302.307L328.9 367.04L330.759 367.778L356.456 303.045L354.597 302.307ZM330.666 366.862C322.885 354.955 312.413 345.568 299.27 338.703L298.344 340.476C311.198 347.189 321.407 356.348 328.992 367.956L330.666 366.862ZM299.288 338.713C286.458 331.672 273.845 327.363 261.452 325.813L261.203 327.798C273.306 329.311 285.679 333.525 298.326 340.466L299.288 338.713ZM261.452 325.813C246.591 323.955 234.987 324.856 226.763 328.67C218.455 332.522 213.694 339.303 212.498 348.864L214.483 349.112C215.599 340.186 219.966 334.026 227.604 330.484C235.326 326.904 246.485 325.957 261.203 327.798L261.452 325.813ZM212.498 348.864C211.875 353.845 212.258 358.502 213.666 362.817L215.567 362.197C214.261 358.192 213.892 353.836 214.483 349.112L212.498 348.864ZM213.666 362.817C215.081 367.155 217.735 371.243 221.578 375.086L222.992 373.672C219.325 370.005 216.866 366.178 215.567 362.197L213.666 362.817ZM221.578 375.086C225.346 378.855 228.83 382.122 232.03 384.886L233.338 383.372C230.183 380.647 226.734 377.415 222.992 373.672L221.578 375.086ZM232.053 384.905C235.48 387.693 240.103 391.215 245.915 395.466L247.096 393.852C241.296 389.61 236.704 386.111 233.315 383.353L232.053 384.905ZM245.951 395.491C252.008 399.529 256.493 402.77 259.426 405.22L260.708 403.684C257.691 401.165 253.135 397.877 247.06 393.827L245.951 395.491ZM259.565 405.317C291.43 423.816 313.882 443.79 327.022 465.206L328.727 464.16C315.352 442.362 292.599 422.181 260.569 403.587L259.565 405.317ZM327.026 465.212C340.38 486.632 345.328 511.31 341.827 539.303L343.812 539.551C347.363 511.158 342.348 486.008 328.723 464.154L327.026 465.212ZM341.827 539.303C336.125 584.904 320.512 618.107 295.122 639.092L296.396 640.633C322.31 619.216 338.071 585.461 343.812 539.551L341.827 539.303ZM295.122 639.092C270.002 659.866 236.234 667.673 193.668 662.35L193.42 664.334C236.356 669.704 270.732 661.858 296.396 640.633L295.122 639.092Z" fill="black" mask="url(#path-3-outside-1_53_9)"/>
<path d="M348.401 666.066H340.08L332.733 635.204H341.502L342.898 645.842L344.978 656.165L347.638 645.842L348.322 643.025L346.295 635.204H354.906L356.802 645.842L359.119 656.165L360.567 645.842L362.121 635.204H370.126L363.332 666.066H354.353L351.114 653.663L348.401 666.066ZM402.782 666.066H384.111V635.204H402.387L401.86 641.418L392.828 641.155V647.106H399.938V653.268L392.828 652.742V659.746L402.782 659.483V666.066ZM429.347 660.905C430.593 660.905 431.506 660.554 432.086 659.852C432.665 659.15 432.955 658.316 432.955 657.35V655.507C432.955 654.366 432.586 653.558 431.849 653.084C431.111 652.593 430.277 652.347 429.347 652.347H427.293V660.905H429.347ZM432.586 643.104C432.586 642.05 432.296 641.322 431.717 640.918C431.138 640.497 430.304 640.286 429.215 640.286H427.293V647.896H429.426C430.444 647.896 431.225 647.501 431.77 646.711C432.314 645.904 432.586 644.921 432.586 643.762V643.104ZM431.138 666.303C429.768 666.303 427.995 666.268 425.818 666.198C423.641 666.128 422.079 666.084 421.131 666.066H418.603V635.204H423.159C424.265 635.204 425.529 635.169 426.951 635.098C428.373 635.011 429.4 634.967 430.032 634.967C432.086 634.967 433.815 635.134 435.219 635.467C436.641 635.801 437.756 636.301 438.564 636.968C439.371 637.635 439.942 638.408 440.275 639.285C440.626 640.163 440.802 641.208 440.802 642.419C440.802 644.28 440.372 645.878 439.512 647.212C438.651 648.546 437.405 649.38 435.772 649.713C439.915 650.082 441.987 652.514 441.987 657.008C441.987 658.36 441.785 659.588 441.381 660.694C440.977 661.783 440.354 662.757 439.512 663.617C438.686 664.46 437.563 665.118 436.141 665.592C434.719 666.066 433.051 666.303 431.138 666.303ZM492.279 661.748C493.613 661.748 494.631 660.923 495.333 659.272C496.053 657.622 496.413 654.901 496.413 651.109V648.449C496.413 645.676 496.079 643.534 495.412 642.024C494.745 640.514 493.797 639.759 492.568 639.759H490.593V661.748H492.279ZM493.095 666.251C492.463 666.251 491.48 666.216 490.146 666.145C488.829 666.093 487.468 666.066 486.064 666.066H481.877V635.204H486.064C487.24 635.186 488.522 635.142 489.909 635.072C491.295 635.002 492.384 634.967 493.174 634.967C497.651 634.967 500.854 636.222 502.786 638.732C504.734 641.243 505.709 644.903 505.709 649.713C505.709 651.346 505.594 652.9 505.366 654.374C505.156 655.849 504.752 657.333 504.155 658.825C503.558 660.299 502.803 661.572 501.89 662.643C500.977 663.714 499.766 664.583 498.256 665.25C496.746 665.917 495.026 666.251 493.095 666.251ZM540.285 666.066H521.615V635.204H539.89L539.363 641.418L530.331 641.155V647.106H537.441V653.268L530.331 652.742V659.746L540.285 659.483V666.066ZM561.32 666.066L552.604 635.204H562.321L564.612 645.842L566.982 657.008L569.22 645.842L571.59 635.204H578.516L570.879 666.066H561.32ZM610.657 666.066H591.986V635.204H610.262L609.735 641.418L600.703 641.155V647.106H607.813V653.268L600.703 652.742V659.746L610.657 659.483V666.066ZM626.478 666.066V635.204H635.194V659.009H643.041V666.066H626.478ZM667.813 654.137C667.813 657.052 668.033 659.079 668.472 660.22C668.928 661.362 669.718 661.932 670.842 661.932C671.667 661.932 672.29 661.73 672.711 661.326C673.133 660.905 673.449 660.054 673.659 658.772C673.888 657.473 674.002 655.533 674.002 652.952V646.606C674.002 644.096 673.756 642.226 673.264 640.997C672.773 639.768 671.965 639.154 670.842 639.154C669.718 639.154 668.928 639.759 668.472 640.971C668.033 642.165 667.813 644.35 667.813 647.528V654.137ZM670.289 666.619C668.832 666.619 667.515 666.488 666.339 666.224C665.18 665.961 664.179 665.592 663.337 665.118C662.494 664.644 661.757 664.039 661.125 663.301C660.51 662.564 660.01 661.774 659.624 660.931C659.255 660.089 658.957 659.106 658.728 657.982C658.5 656.841 658.342 655.709 658.254 654.585C658.167 653.444 658.123 652.162 658.123 650.74C658.123 648.634 658.228 646.799 658.439 645.237C658.667 643.674 659.079 642.208 659.676 640.839C660.273 639.452 661.063 638.329 662.046 637.468C663.047 636.608 664.329 635.932 665.891 635.441C667.471 634.949 669.332 634.703 671.474 634.703C672.948 634.703 674.274 634.844 675.45 635.125C676.626 635.388 677.636 635.757 678.478 636.231C679.321 636.705 680.05 637.319 680.664 638.074C681.296 638.829 681.796 639.637 682.165 640.497C682.551 641.339 682.858 642.331 683.087 643.472C683.315 644.614 683.473 645.746 683.561 646.869C683.648 647.993 683.692 649.266 683.692 650.688C683.692 652.794 683.578 654.629 683.35 656.191C683.122 657.754 682.709 659.22 682.112 660.589C681.515 661.941 680.717 663.047 679.716 663.907C678.715 664.75 677.425 665.417 675.845 665.908C674.283 666.382 672.43 666.619 670.289 666.619ZM708.575 666.066H699.858V635.204H703.334C704.265 635.204 705.669 635.169 707.548 635.098C709.426 635.011 710.971 634.967 712.182 634.967C715.588 634.967 718.169 635.871 719.924 637.679C721.68 639.487 722.558 642.2 722.558 645.816C722.558 647.993 722.268 649.977 721.689 651.767C721.127 653.541 720.363 654.998 719.398 656.139C718.432 657.28 717.335 658.158 716.106 658.772C714.877 659.387 713.578 659.694 712.209 659.694C712.033 659.694 711.849 659.694 711.656 659.694C711.48 659.694 711.313 659.694 711.155 659.694C711.015 659.676 710.839 659.667 710.629 659.667C710.435 659.65 710.277 659.641 710.155 659.641C710.049 659.624 709.891 659.615 709.681 659.615C709.487 659.597 709.356 659.588 709.286 659.588C709.215 659.588 709.084 659.58 708.891 659.562C708.697 659.545 708.592 659.536 708.575 659.536V666.066ZM713.92 644.657C713.92 643.358 713.569 642.305 712.867 641.497C712.165 640.69 711.155 640.286 709.839 640.286H708.575V653.979H709.549C710.936 653.979 712.007 653.514 712.762 652.584C713.534 651.653 713.92 650.31 713.92 648.555V644.657ZM756.646 666.066H737.976V635.204H756.251L755.724 641.418L746.692 641.155V647.106H753.802V653.268L746.692 652.742V659.746L756.646 659.483V666.066ZM781.131 655.796V666.066H772.388V635.204H775.864C776.707 635.204 777.962 635.169 779.63 635.098C781.298 635.011 782.676 634.967 783.764 634.967C787.556 634.967 790.383 635.801 792.244 637.468C794.122 639.136 795.061 641.691 795.061 645.131C795.061 647.168 794.614 648.976 793.718 650.556C792.841 652.136 791.673 653.391 790.216 654.322C791.006 654.515 791.682 654.963 792.244 655.665C792.823 656.367 793.271 657.201 793.587 658.166C793.903 659.114 794.175 660.08 794.403 661.063C794.649 662.029 794.921 662.985 795.219 663.933C795.535 664.881 795.878 665.592 796.246 666.066H786.529C786.336 665.821 786.187 665.136 786.082 664.012C785.976 662.871 785.827 661.511 785.634 659.931C785.458 658.333 785.204 656.999 784.87 655.928C784.835 655.928 784.791 655.928 784.739 655.928C784.405 655.928 784.045 655.928 783.659 655.928C783.29 655.911 782.966 655.893 782.685 655.875C782.404 655.858 782.105 655.84 781.789 655.823C781.491 655.805 781.271 655.796 781.131 655.796ZM781.131 650.898H781.974C782.413 650.898 782.781 650.881 783.08 650.846C783.378 650.811 783.703 650.749 784.054 650.661C784.423 650.556 784.721 650.398 784.949 650.187C785.195 649.977 785.423 649.705 785.634 649.371C785.845 649.038 786.003 648.607 786.108 648.081C786.213 647.554 786.266 646.94 786.266 646.237V644.157C786.266 642.63 785.862 641.568 785.055 640.971C784.265 640.356 783.124 640.049 781.631 640.049H781.131V650.898ZM854.237 665.118C852.727 666.347 849.734 666.962 845.257 666.962C841.746 666.962 838.981 666.005 836.962 664.091C834.943 662.16 833.934 659.755 833.934 656.876C833.934 655.103 834.557 653.558 835.803 652.241C837.05 650.925 838.489 649.933 840.122 649.266C840.017 649.038 839.797 648.66 839.464 648.133C839.148 647.607 838.849 647.115 838.568 646.659C838.287 646.202 838.033 645.614 837.805 644.894C837.576 644.175 837.462 643.455 837.462 642.735C837.462 640.049 838.287 638.021 839.938 636.652C841.605 635.283 844.388 634.598 848.285 634.598C850.006 634.598 851.516 634.826 852.815 635.283C854.114 635.739 855.114 636.354 855.817 637.126C856.519 637.881 857.037 638.689 857.37 639.549C857.704 640.391 857.871 641.287 857.871 642.235C857.871 644.201 857.335 645.957 856.264 647.501C855.211 649.029 853.57 650.486 851.34 651.873C851.603 652.347 852.077 653.014 852.762 653.874C853.464 654.717 854.105 655.375 854.684 655.849C854.842 655.445 854.965 655.042 855.053 654.638C855.158 654.216 855.237 653.742 855.29 653.216C855.36 652.689 855.334 652.241 855.211 651.873L862.242 652.083C862.242 653.453 862.093 654.682 861.794 655.77C861.496 656.841 861.197 657.622 860.899 658.114C860.601 658.588 860.179 659.185 859.635 659.904C860.881 660.94 862.119 661.59 863.348 661.853L861.32 666.461C860.846 666.514 860.469 666.54 860.188 666.54C857.607 666.54 855.624 666.066 854.237 665.118ZM841.755 657.034C841.755 658.632 842.255 659.94 843.256 660.958C844.256 661.976 845.424 662.485 846.758 662.485C846.969 662.485 847.162 662.476 847.337 662.459C847.513 662.424 847.697 662.371 847.89 662.301C848.083 662.213 848.25 662.143 848.391 662.09C848.531 662.02 848.742 661.915 849.023 661.774C849.304 661.634 849.532 661.52 849.707 661.432C846.863 659.448 844.581 656.981 842.861 654.032C842.439 654.278 842.15 654.611 841.992 655.033C841.834 655.454 841.755 656.121 841.755 657.034ZM848.154 638.285C846.872 638.285 846.231 639.724 846.231 642.603C846.231 644.394 846.881 646.036 848.18 647.528C848.865 646.966 849.374 646.369 849.707 645.737C850.041 645.105 850.234 644.561 850.287 644.104C850.357 643.63 850.392 642.972 850.392 642.129C850.392 639.566 849.646 638.285 848.154 638.285ZM913.043 661.748C914.377 661.748 915.396 660.923 916.098 659.272C916.818 657.622 917.177 654.901 917.177 651.109V648.449C917.177 645.676 916.844 643.534 916.177 642.024C915.51 640.514 914.562 639.759 913.333 639.759H911.358V661.748H913.043ZM913.859 666.251C913.227 666.251 912.244 666.216 910.91 666.145C909.593 666.093 908.233 666.066 906.828 666.066H902.641V635.204H906.828C908.005 635.186 909.286 635.142 910.673 635.072C912.06 635.002 913.148 634.967 913.938 634.967C918.415 634.967 921.619 636.222 923.55 638.732C925.499 641.243 926.473 644.903 926.473 649.713C926.473 651.346 926.359 652.9 926.131 654.374C925.92 655.849 925.516 657.333 924.919 658.825C924.323 660.299 923.568 661.572 922.655 662.643C921.742 663.714 920.531 664.583 919.021 665.25C917.511 665.917 915.791 666.251 913.859 666.251ZM961.049 666.066H942.379V635.204H960.654L960.128 641.418L951.095 641.155V647.106H958.205V653.268L951.095 652.742V659.746L961.049 659.483V666.066ZM986.061 666.619C984.709 666.619 983.445 666.497 982.269 666.251C981.11 666.023 980.136 665.715 979.346 665.329C978.556 664.943 977.906 664.574 977.397 664.223C976.906 663.872 976.493 663.521 976.16 663.17L976.818 656.771C977.538 657.736 978.503 658.579 979.715 659.299C980.926 660.001 982.234 660.352 983.638 660.352C985.043 660.352 986.052 660.203 986.667 659.904C987.299 659.606 987.615 659.062 987.615 658.272C987.615 657.429 987.255 656.709 986.535 656.112C985.833 655.516 984.613 654.796 982.875 653.953C982.243 653.637 981.707 653.356 981.268 653.11C980.829 652.847 980.241 652.426 979.504 651.846C978.784 651.25 978.196 650.635 977.74 650.003C977.283 649.354 976.879 648.528 976.528 647.528C976.177 646.51 976.002 645.421 976.002 644.262C976.002 637.995 979.539 634.861 986.614 634.861C987.737 634.861 988.791 634.984 989.774 635.23C990.775 635.458 991.556 635.713 992.118 635.994C992.679 636.275 993.188 636.608 993.645 636.994C994.119 637.363 994.417 637.626 994.54 637.784C994.663 637.925 994.751 638.039 994.804 638.127L993.487 643.209C992.802 642.402 991.942 641.805 990.906 641.418C989.888 641.015 988.914 640.813 987.983 640.813C985.736 640.813 984.613 641.515 984.613 642.919C984.613 643.288 984.683 643.622 984.823 643.92C984.964 644.219 985.192 644.491 985.508 644.736C985.824 644.982 986.114 645.193 986.377 645.368C986.658 645.544 987.035 645.763 987.509 646.027C988.001 646.273 988.369 646.474 988.615 646.632C991.178 647.721 993.057 649.011 994.251 650.503C995.462 651.996 996.068 653.813 996.068 655.954C996.068 659.43 995.207 662.081 993.487 663.907C991.784 665.715 989.309 666.619 986.061 666.619ZM1012.37 666.066V635.204H1021.35V666.066H1012.37ZM1057.17 663.275C1054.94 665.505 1052.29 666.619 1049.22 666.619C1047.04 666.619 1045.16 666.242 1043.56 665.487C1041.98 664.732 1040.72 663.644 1039.79 662.222C1038.86 660.8 1038.18 659.176 1037.74 657.35C1037.32 655.524 1037.11 653.444 1037.11 651.109C1037.11 649.371 1037.19 647.809 1037.37 646.422C1037.56 645.035 1037.87 643.709 1038.29 642.445C1038.71 641.181 1039.29 640.093 1040.03 639.18C1040.77 638.25 1041.67 637.442 1042.74 636.757C1043.81 636.073 1045.11 635.564 1046.64 635.23C1048.17 634.879 1049.9 634.703 1051.85 634.703C1052.73 634.703 1053.56 634.756 1054.35 634.861C1055.16 634.967 1055.85 635.098 1056.41 635.256C1056.97 635.397 1057.5 635.581 1057.99 635.809C1058.5 636.02 1058.89 636.213 1059.17 636.389C1059.47 636.547 1059.74 636.722 1059.99 636.915C1060.24 637.109 1060.38 637.24 1060.44 637.31C1060.51 637.381 1060.56 637.433 1060.6 637.468L1060.2 643.525H1055.41L1053.91 640.023C1053.52 639.812 1052.9 639.707 1052.04 639.707C1051.33 639.707 1050.76 639.768 1050.3 639.891C1049.84 640.014 1049.39 640.277 1048.93 640.681C1048.49 641.067 1048.14 641.638 1047.88 642.393C1047.63 643.13 1047.43 644.14 1047.27 645.421C1047.11 646.685 1047.03 648.23 1047.03 650.056C1047.03 653.865 1047.24 656.692 1047.64 658.535C1048.06 660.378 1048.89 661.3 1050.14 661.3C1050.76 661.3 1051.27 661.247 1051.69 661.142C1052.12 661.019 1052.51 660.809 1052.88 660.51C1053.25 660.194 1053.52 659.738 1053.7 659.141C1053.87 658.526 1053.96 657.745 1053.96 656.797V654.111L1050.48 653.321V647.949H1062.2L1062.18 666.066H1057.49L1057.17 663.275ZM1086.64 666.066H1078.26V637.679L1076.97 635.204H1086.66L1091.51 645.21L1096.14 655.191L1094.85 643.472V635.204H1103.25V666.066H1095.22L1088.95 653.874L1085.08 646.237L1086.64 656.349V666.066ZM1138.91 666.066H1120.24V635.204H1138.51L1137.99 641.418L1128.95 641.155V647.106H1136.06V653.268L1128.95 652.742V659.746L1138.91 659.483V666.066ZM1163.39 655.796V666.066H1154.65V635.204H1158.13C1158.97 635.204 1160.22 635.169 1161.89 635.098C1163.56 635.011 1164.94 634.967 1166.03 634.967C1169.82 634.967 1172.64 635.801 1174.5 637.468C1176.38 639.136 1177.32 641.691 1177.32 645.131C1177.32 647.168 1176.87 648.976 1175.98 650.556C1175.1 652.136 1173.93 653.391 1172.48 654.322C1173.27 654.515 1173.94 654.963 1174.5 655.665C1175.08 656.367 1175.53 657.201 1175.85 658.166C1176.16 659.114 1176.44 660.08 1176.66 661.063C1176.91 662.029 1177.18 662.985 1177.48 663.933C1177.8 664.881 1178.14 665.592 1178.51 666.066H1168.79C1168.6 665.821 1168.45 665.136 1168.34 664.012C1168.24 662.871 1168.09 661.511 1167.9 659.931C1167.72 658.333 1167.47 656.999 1167.13 655.928C1167.1 655.928 1167.05 655.928 1167 655.928C1166.67 655.928 1166.31 655.928 1165.92 655.928C1165.55 655.911 1165.23 655.893 1164.95 655.875C1164.67 655.858 1164.37 655.84 1164.05 655.823C1163.75 655.805 1163.53 655.796 1163.39 655.796ZM1163.39 650.898H1164.23C1164.67 650.898 1165.04 650.881 1165.34 650.846C1165.64 650.811 1165.96 650.749 1166.32 650.661C1166.68 650.556 1166.98 650.398 1167.21 650.187C1167.46 649.977 1167.68 649.705 1167.9 649.371C1168.11 649.038 1168.26 648.607 1168.37 648.081C1168.47 647.554 1168.53 646.94 1168.53 646.237V644.157C1168.53 642.63 1168.12 641.568 1167.32 640.971C1166.53 640.356 1165.38 640.049 1163.89 640.049H1163.39V650.898Z" fill="#3E5B56"/>
</svg>
