<svg width="1131" height="1025" viewBox="0 0 1131 1025" fill="none" xmlns="http://www.w3.org/2000/svg">
<path d="M3.5 503.698C3.5 222.476 230.478 3.5 472.735 3.5C593.997 3.5 757.881 60.5345 891.487 152.986C1025.17 245.494 1127.5 372.703 1127.5 512.5C1127.5 652.297 1025.17 779.506 891.487 872.014C757.881 964.465 593.997 1021.5 472.735 1021.5C230.63 1021.5 3.5 785.079 3.5 503.698Z" stroke="#EAE5D8" stroke-opacity="0.3" stroke-width="7"/>
<path d="M28.5 502.773C28.5 239.955 236.637 27 468 27C583.858 27 742.682 82.407 872.59 170.938C1002.61 259.543 1102.5 380.504 1102.5 511C1102.5 641.525 1004.69 762.11 876.824 850.323C749.049 938.47 592.356 993.5 476.5 993.5C245.189 993.5 28.5 765.647 28.5 502.773Z" stroke="#EAE5D8" stroke-opacity="0.3" stroke-width="7"/>
<path d="M56.5 502.995C56.5 256.924 253.364 57.5 472.231 57.5C581.835 57.5 732.105 109.392 855.021 192.316C978.054 275.318 1072.5 388.579 1072.5 510.703C1072.5 632.855 980.027 745.764 859.027 828.398C738.131 910.961 589.876 962.5 480.275 962.5C261.46 962.5 56.5 749.122 56.5 502.995Z" stroke="#EAE5D8" stroke-opacity="0.3" stroke-width="7"/>
<path d="M82.5 505.487C82.5 276.877 269.22 91.5 476.921 91.5C580.928 91.5 723.535 139.741 840.182 216.831C956.964 294.011 1046.5 399.26 1046.5 512.653C1046.5 626.076 958.834 730.997 843.983 807.833C729.254 884.587 588.56 932.5 484.556 932.5C276.908 932.5 82.5 734.152 82.5 505.487Z" stroke="#EAE5D8" stroke-opacity="0.3" stroke-width="7"/>
<path d="M112.5 504.009C112.5 293.951 287.907 123.5 483.153 123.5C580.914 123.5 714.974 167.862 824.629 238.754C934.439 309.747 1018.5 406.484 1018.5 510.601C1018.5 614.747 936.193 711.183 828.202 781.857C720.351 852.44 588.091 896.5 490.332 896.5C295.14 896.5 112.5 714.122 112.5 504.009Z" stroke="#EAE5D8" stroke-opacity="0.3" stroke-width="7"/>
</svg>
