<svg width="1574" height="1173" viewBox="0 0 1574 1173" fill="none" xmlns="http://www.w3.org/2000/svg">
<g clip-path="url(#clip0_66_24)">
<path d="M51 588.302C51 871.348 268.936 1092 502 1092C735.064 1092 1130 862.546 1130 579.5C1130 296.454 735.064 67 502 67C268.936 67 51 305.257 51 588.302Z" fill="#3E5B56"/>
<path d="M535.915 962.614C501.693 962.614 469.771 959.504 440.148 953.284C410.959 947.508 386.486 939.732 366.73 929.957C346.974 920.183 330.762 910.852 318.095 901.966C305.872 893.08 295.65 884.194 287.427 875.308L308.134 713.358C325.747 737.795 349.659 759.122 379.871 777.338C410.095 795.111 442.984 803.997 478.54 803.997C514.095 803.997 539.745 800.22 555.489 792.667C571.677 785.114 580.021 771.34 580.52 751.346C581.052 730.02 572.395 711.803 554.55 696.697C537.149 681.59 506.715 663.374 463.247 642.047C447.447 634.05 434.068 626.941 423.112 620.72C412.168 614.056 397.545 603.392 379.244 588.73C361.399 573.624 346.898 558.073 335.741 542.078C324.596 525.639 314.895 504.756 306.638 479.431C298.392 453.661 294.635 426.114 295.366 396.79C299.324 238.173 390.858 158.864 569.969 158.864C598.414 158.864 625.003 161.974 649.737 168.195C674.926 173.97 694.543 180.413 708.588 187.522C722.633 194.631 735.311 203.073 746.622 212.847C758.39 222.178 765.779 228.842 768.79 232.841C771.813 236.395 773.963 239.283 775.241 241.505L738.698 370.132C721.875 349.694 700.474 334.587 674.496 324.812C648.973 314.593 624.434 309.484 600.878 309.484C543.989 309.484 515.101 327.256 514.214 362.801C513.982 372.131 515.549 380.573 518.916 388.126C522.283 395.679 527.889 402.566 535.734 408.786C543.579 415.007 550.779 420.338 557.335 424.781C564.335 429.224 573.752 434.778 585.586 441.443C597.875 447.663 607.081 452.773 613.203 456.771C677.405 484.318 724.145 516.975 753.425 554.741C783.15 592.507 797.336 638.493 795.983 692.698C793.788 780.671 770.337 847.761 725.628 893.969C681.375 939.732 618.138 962.614 535.915 962.614Z" fill="#EAE5D8"/>
<rect x="882.067" y="165" width="638" height="745" stroke="white" stroke-width="6"/>
<rect x="856" y="505" width="62" height="303" fill="#3E5B56"/>
<path d="M959.862 743L937.697 684.513L961.149 621.45H1014.77L977.308 677.649L1015.63 743H959.862ZM888.219 743V581.267L879.639 576.119V562.82L925.542 555.67H934.837V743H888.219ZM1020.93 743V650.479L1012.35 645.188V629.887L1043.1 621.45H1066.98V743H1020.93ZM1041.67 608.294L1018.22 584.699V579.694L1041.67 556.242H1047.1L1071.55 579.694V584.699L1047.1 608.294H1041.67ZM1085.13 743V581.267L1076.55 576.119V562.82L1122.46 555.67H1131.75V743H1085.13ZM1149.23 743V581.267L1140.65 576.119V562.82L1186.56 555.67H1195.85V743H1149.23ZM1252.51 746.003C1243.55 746.003 1234.49 744.525 1225.34 741.57C1216.19 738.519 1210.33 735.564 1207.75 732.704L1211.47 709.681C1214.71 712.827 1220.1 715.544 1227.63 717.832C1235.26 720.12 1243.03 721.264 1250.94 721.264C1256.66 721.264 1260.57 720.549 1262.67 719.119C1264.86 717.689 1265.95 715.687 1265.95 713.113C1265.95 710.634 1264.05 708.442 1260.23 706.535C1256.42 704.533 1250.22 702.245 1241.64 699.671C1219.43 692.998 1208.33 679.174 1208.33 658.201C1208.33 649.621 1210.8 642.28 1215.76 636.179C1220.72 629.982 1227.06 625.502 1234.78 622.737C1242.5 619.972 1251.13 618.59 1260.66 618.59C1276.97 618.59 1288.98 621.593 1296.7 627.599C1298.42 629.22 1299.27 630.03 1299.27 630.03L1292.98 650.479C1286.69 644.282 1278.01 641.184 1266.96 641.184C1257.9 641.184 1253.37 643.853 1253.37 649.192C1253.37 650.717 1253.7 652.004 1254.37 653.053C1255.04 654.006 1256.14 654.864 1257.66 655.627C1259.28 656.294 1260.85 656.866 1262.38 657.343C1263.91 657.724 1266.05 658.296 1268.82 659.059C1271.58 659.726 1273.96 660.346 1275.97 660.918C1287.12 664.636 1295.22 669.879 1300.27 676.648C1305.33 683.417 1307.85 691.854 1307.85 701.959C1307.85 731.322 1289.41 746.003 1252.51 746.003Z" fill="#EAE5D8"/>
</g>
<defs>
<clipPath id="clip0_66_24">
<rect width="1574" height="1173" fill="white"/>
</clipPath>
</defs>
</svg>
